<?xml version="1.0" encoding="utf-8"?>
<!-- Generator: Adobe Illustrator 18.1.0, SVG Export Plug-In . SVG Version: 6.00 Build 0)  -->
<svg version="1.1" id="Layer_1" xmlns="http://www.w3.org/2000/svg" xmlns:xlink="http://www.w3.org/1999/xlink" x="0px" y="0px"
	 viewBox="0 0 358 92.3" enable-background="new 0 0 358 92.3" xml:space="preserve">
<g>
	<path fill="#001689" d="M112.7,17.4H129c9.5,0,15.3,5.6,15.3,13.8v0.1c0,9.2-7.2,14-16.1,14h-6.7v12h-8.8V17.4z M128.5,37.5
		c4.4,0,7-2.6,7-6v-0.1c0-3.9-2.7-6-7.1-6h-6.8v12.2H128.5z"/>
	<path fill="#001689" d="M152.8,17.4h30.1v7.8h-21.4v8.1h18.8v7.8h-18.8v8.4h21.7v7.8h-30.4V17.4z"/>
	<path fill="#001689" d="M193.6,17.4h8.1l18.7,24.6V17.4h8.7v39.9h-7.5l-19.3-25.4v25.4h-8.7V17.4z"/>
</g>
<g>
	<path fill="#00AEEF" d="M241.1,17.4h30.4v8h-21.6v8.5h19v8h-19v15.4h-8.8V17.4z"/>
	<path fill="#00AEEF" d="M280.4,17.4h30.1v7.8h-21.4v8.1h18.8v7.8h-18.8v8.4h21.7v7.8h-30.4V17.4z"/>
	<path fill="#00AEEF" d="M321.2,17.4h15.6c12.5,0,21.2,8.6,21.2,19.8v0.1c0,11.2-8.7,19.9-21.2,19.9h-15.6V17.4z M330,25.3v24.1h6.8
		c7.2,0,12-4.8,12-11.9v-0.1c0-7.1-4.8-12-12-12H330z"/>
</g>
<g>
	<path fill="#001689" d="M111.1,78.8L111.1,78.8c0-5.6,4.2-10.1,10.1-10.1c3.7,0,5.9,1.2,7.7,3l-2.7,3.1c-1.5-1.4-3-2.2-5-2.2
		c-3.3,0-5.6,2.7-5.6,6v0.1c0,3.3,2.3,6.1,5.6,6.1c2.2,0,3.6-0.9,5.1-2.3l2.7,2.7c-2,2.1-4.2,3.5-8,3.5
		C115.4,88.8,111.1,84.4,111.1,78.8z"/>
	<path fill="#001689" d="M135.1,69.1h8.9c2.5,0,4.4,0.7,5.7,2c1.1,1.1,1.7,2.6,1.7,4.4v0.1c0,3.1-1.7,5.1-4.2,6l4.7,6.9h-5l-4.2-6.2
		h-3.4v6.2h-4.3V69.1z M143.7,78.5c2.1,0,3.3-1.1,3.3-2.7v-0.1c0-1.8-1.3-2.8-3.4-2.8h-4.2v5.6H143.7z"/>
	<path fill="#001689" d="M158.1,69.1h14.6v3.8h-10.4v3.9h9.2v3.8h-9.2v4.1h10.5v3.8h-14.8V69.1z"/>
	<path fill="#001689" d="M179.8,69.1h7.6c6.1,0,10.3,4.2,10.3,9.7v0.1c0,5.5-4.2,9.7-10.3,9.7h-7.6V69.1z M184.1,72.9v11.7h3.3
		c3.5,0,5.9-2.4,5.9-5.8v-0.1c0-3.4-2.4-5.9-5.9-5.9H184.1z"/>
	<path fill="#001689" d="M204.5,69.1h4.3v19.4h-4.3V69.1z"/>
	<path fill="#001689" d="M220.5,73h-5.9v-3.9h16.1V73h-5.9v15.5h-4.3V73z"/>
	<path fill="#001689" d="M247.6,80.2V69.1h4.3v11c0,3.2,1.6,4.8,4.2,4.8c2.6,0,4.2-1.6,4.2-4.7V69.1h4.3v11c0,5.9-3.3,8.8-8.5,8.8
		C250.8,88.8,247.6,85.9,247.6,80.2z"/>
	<path fill="#001689" d="M271.9,69.1h3.9l9.1,12v-12h4.2v19.4h-3.6l-9.4-12.3v12.3h-4.2V69.1z"/>
	<path fill="#001689" d="M297,69.1h4.3v19.4H297V69.1z"/>
	<path fill="#001689" d="M307.9,78.8L307.9,78.8c0-5.6,4.4-10.1,10.3-10.1s10.3,4.5,10.3,10v0.1c0,5.5-4.4,10-10.3,10
		C312.2,88.8,307.9,84.3,307.9,78.8z M324.1,78.8L324.1,78.8c0-3.4-2.4-6.2-5.9-6.2c-3.4,0-5.8,2.7-5.8,6v0.1c0,3.3,2.4,6.1,5.9,6.1
		C321.7,84.9,324.1,82.2,324.1,78.8z"/>
	<path fill="#001689" d="M335.2,69.1h3.9l9.1,12v-12h4.2v19.4h-3.6l-9.4-12.3v12.3h-4.2V69.1z"/>
</g>
<path fill="none" d="M74,25.1c0.2-0.5,0.3-0.9,0.4-1.3L74,25.1z"/>
<g>
	<path fill="#00AEEF" d="M95.4,32L95.4,32c0,0-0.1-0.1-0.1-0.1c-0.6-0.7-1.2-1.3-2-1.7c-0.9-0.6-1.8-1-2.3-1.4c0,0,1.1,0.8-0.5,6.3
		l-0.5,1.6l-0.1,0.5c-0.3,0.9-0.4,1.4-0.5,1.5l0,0.1l-2.2,7l-0.8,2.4L84,55l-9.7,30.2c-2,5.9-4.4,6.7-4.4,6.7c3.2,0.8,6,0.1,6.1,0
		l0,0c2.1-0.6,4-2.2,4.9-4.4c0,0,0,0,0,0L96.7,39C97.4,36.5,96.9,33.9,95.4,32z"/>
	<path fill="#00AEEF" d="M87.4,26.3L87.4,26.3C87.4,26.3,87.4,26.3,87.4,26.3c-0.1-0.1-0.1-0.2-0.2-0.2c-0.6-0.7-1.2-1.2-2-1.6
		c-0.9-0.6-1.7-1-2.2-1.4c0,0,1.1,0.9-0.5,6.5L82,30.9l-0.1,0.4c-0.3,1-0.5,1.5-0.5,1.6l-2.3,7l-0.8,2.3l-2.3,7L64.3,85.9
		c-1.9,5.3-4.1,6-4.1,6c0.7,0.2,1.4,0.3,2,0.4l0,0c0,0,0,0,0.1,0c2.3,0.2,3.9-0.3,3.9-0.3c2.1-0.6,4-2.2,4.9-4.4
		c0.1-0.1,11.1-33.9,11.1-33.9l2.3-7l0.8-2.4l2.3-7l0.7-2l0.7-2C89.5,30.8,88.9,28.2,87.4,26.3z"/>
	<path fill="#00AEEF" d="M79.4,20.4c-1.3-1.6-3.5-2.6-4.5-3.3c0,0,0,0,0,0.1c0.2,0.3,0.9,1.6-0.6,6.6c-0.1,0.4-0.3,0.9-0.4,1.3
		c-0.5,1.5-0.6,2-0.6,2l-2.3,7l-0.7,2.3l-2.3,7L54.1,86.5c-1.8,4.8-3.3,5.5-3.3,5.5c0.4,0.1,0.9,0.2,1.4,0.2l0,0c0,0,0,0,0.1,0
		c0.4,0,0.8,0.1,1.3,0.1c3.6,0.1,6.3-1.6,7.5-4.8c0,0,0,0,0,0l13-39.7l2.3-7l0.8-2.3l2.3-7l0.7-2l0.7-2.1
		C81.5,24.9,80.9,22.3,79.4,20.4z"/>
</g>
<g>
	<g>
		<path fill="#001689" d="M75,17.2L53.2,1.4c-2.1-1.5-4.8-1.8-7.1-0.9l0,0c-0.1,0-2.9,1.2-5,3.7c0,0,2.6-0.8,7.8,3
			c1.3,0.9,1.7,1.2,1.7,1.2l0,0L74,25.1l0.4-1.3C75.9,18.8,75.2,17.5,75,17.2z"/>
		<path fill="#001689" d="M73.3,27.1L45.6,6.9c-2.1-1.5-4.8-1.8-7-0.9c0,0-2.7,0.8-4.9,3.6c0,0,2.3-0.8,7,2.6L71,34.1L73.3,27.1z"/>
		<path fill="#001689" d="M70.3,36.4L37.6,12.6c-2.9-2-6.3-1.9-9.3,0.4c-0.9,0.6-1.6,1.4-2.1,1.9c0,0,1.7-0.3,6.1,2.6L68,43.4
			L70.3,36.4z"/>
	</g>
	<path fill="#001689" d="M51.6,86.6c-1.8,4.8-3.3,5.5-3.3,5.5l-29.4,0L0,34l24.1-17.4c0,0,1.8-0.6,5.3,2c0.9,0.6,1.1,0.8,1.1,0.8
		l16.8,12.3L30.9,43.5L38,65.3h20.5L51.6,86.6"/>
</g>
</svg>
