<?xml version="1.0" encoding="UTF-8"?>
<svg width="25px" height="16px" viewBox="0 0 25 16" version="1.1" xmlns="http://www.w3.org/2000/svg" xmlns:xlink="http://www.w3.org/1999/xlink">
    <!-- Generator: Sketch 44.1 (41455) - http://www.bohemiancoding.com/sketch -->
    <title>Payment Icon</title>
    <desc>Created with Sketch.</desc>
    <defs></defs>
    <g id="Phone" stroke="none" stroke-width="1" fill="none" fill-rule="evenodd">
        <g id="ST_Account-Detail-B_Hidden-V2" transform="translate(-302.000000, -178.000000)" fill="#0F2D52">
            <g id="Group-12" transform="translate(262.000000, 178.000000)">
                <path d="M40.5909092,0.5 L64.5909092,0.5 L64.5909092,12.5 L40.5909092,12.5 L40.5909092,0.5 Z M49.6377842,11 C48.606529,9.81249406 48.0909092,8.31250906 48.0909092,6.5 C48.0909092,4.68749094 48.606529,3.18750594 49.6377842,2 L45.0909092,2 C45.0909092,2.81250406 44.7940372,3.51562203 44.2002842,4.109375 C43.6065312,4.70312797 42.9034133,5 42.0909092,5 L42.0909092,8.75 C42.7159123,8.75 43.247157,8.96874781 43.6846592,9.40625 C44.1221614,9.84375219 44.3409092,10.3749969 44.3409092,11 L49.6377842,11 Z M54.5596592,8.234375 C54.6846598,8.07812422 54.7471592,7.84375156 54.7471592,7.53125 C54.7471592,7.37499922 54.7315343,7.25000047 54.7002842,7.15625 C54.6377839,6.96874906 54.5752845,6.84375031 54.5127842,6.78125 C54.3877836,6.65624938 54.2784097,6.56250031 54.1846592,6.5 C53.9971583,6.37499937 53.8409098,6.29687516 53.7159092,6.265625 C53.684659,6.265625 53.5752851,6.23437531 53.3877842,6.171875 C53.356534,6.14062484 53.2940347,6.125 53.2002842,6.125 L53.0127842,6.125 L53.0127842,4.671875 C53.0440343,4.70312516 53.0987213,4.73437484 53.1768467,4.765625 C53.2549721,4.79687516 53.309659,4.8125 53.3409092,4.8125 C53.5284101,4.93750063 53.637784,5.14062359 53.6690342,5.421875 L54.6065342,5.421875 C54.6065342,5.26562422 54.5440348,5.06250125 54.4190342,4.8125 C54.3252837,4.59374891 54.1846601,4.42187563 53.9971592,4.296875 C53.8096583,4.17187438 53.5909104,4.07812531 53.3409092,4.015625 C53.2159086,3.95312469 53.1065347,3.921875 53.0127842,3.921875 L53.0127842,3.5 L52.1690342,3.5 L52.1690342,3.921875 C52.1065339,3.921875 52.0127848,3.95312469 51.8877842,4.015625 C51.5752826,4.07812531 51.3565348,4.15624953 51.2315342,4.25 C51.0440333,4.40625078 50.9034097,4.56249922 50.8096592,4.71875 C50.6846586,4.96875125 50.6221592,5.18749906 50.6221592,5.375 C50.6221592,5.53125078 50.637784,5.65624953 50.6690342,5.75 C50.7002843,5.90625078 50.7627837,6.01562469 50.8565342,6.078125 C51.012785,6.23437578 51.1377837,6.34374969 51.2315342,6.40625 C51.4190351,6.53125063 51.6065333,6.60937484 51.7940342,6.640625 C51.8252843,6.67187516 51.8877837,6.6875 51.9815342,6.6875 L52.1690342,6.6875 L52.1690342,8.328125 C51.9815333,8.26562469 51.8409097,8.20312531 51.7471592,8.140625 C51.5909084,8.04687453 51.4971593,7.93750062 51.4659092,7.8125 C51.4034089,7.62499906 51.3721592,7.48437547 51.3721592,7.390625 L50.4346592,7.390625 C50.4346592,7.57812594 50.4971586,7.82812344 50.6221592,8.140625 C50.7471598,8.32812594 50.9034083,8.49999922 51.0909092,8.65625 C51.3409104,8.84375094 51.5752831,8.95312484 51.7940342,8.984375 C51.9815351,9.04687531 52.1065339,9.078125 52.1690342,9.078125 L52.1690342,9.5 L53.0127842,9.5 L53.0127842,9.078125 C53.1065347,9.078125 53.2471583,9.04687531 53.4346592,8.984375 C53.7471608,8.92187469 53.9659086,8.84375047 54.0909092,8.75 C54.2159098,8.65624953 54.3721583,8.48437625 54.5596592,8.234375 Z M63.0909092,8.75 L63.0909092,5 C62.2784051,5 61.5752872,4.70312797 60.9815342,4.109375 C60.3877812,3.51562203 60.0909092,2.81250406 60.0909092,2 L55.5440342,2 C56.5752893,3.18750594 57.0909092,4.68749094 57.0909092,6.5 C57.0909092,8.31250906 56.5752893,9.81249406 55.5440342,11 L60.8409092,11 C60.8409092,10.3749969 61.059657,9.84375219 61.4971592,9.40625 C61.9346614,8.96874781 62.4659061,8.75 63.0909092,8.75 Z M43.5909092,6.5 C43.5909092,5.499995 44.0909042,5 45.0909092,5 C46.0909142,5 46.5909092,5.499995 46.5909092,6.5 C46.5909092,7.500005 46.0909142,8 45.0909092,8 C44.0909042,8 43.5909092,7.500005 43.5909092,6.5 Z M58.5909092,6.5 C58.5909092,5.499995 59.0909042,5 60.0909092,5 C61.0909142,5 61.5909092,5.499995 61.5909092,6.5 C61.5909092,7.500005 61.0909142,8 60.0909092,8 C59.0909042,8 58.5909092,7.500005 58.5909092,6.5 Z M53.3877842,7.015625 C53.5127848,7.07812531 53.6065339,7.14062469 53.6690342,7.203125 C53.7627847,7.29687547 53.8096592,7.43749906 53.8096592,7.625 C53.8096592,7.75000062 53.7940343,7.84374969 53.7627842,7.90625 C53.7002839,8.03125062 53.6377845,8.10937484 53.5752842,8.140625 L53.2002842,8.328125 L53.1534092,8.375 L53.0127842,8.375 L53.0127842,6.921875 C53.0440343,6.921875 53.1065337,6.92968742 53.2002842,6.9453125 C53.2940347,6.96093758 53.356534,6.98437484 53.3877842,7.015625 Z M51.6534092,4.953125 C51.6846593,4.89062469 51.7627836,4.82812531 51.8877842,4.765625 C52.0127848,4.70312469 52.1065339,4.671875 52.1690342,4.671875 L52.1690342,5.890625 C52.0127834,5.85937484 51.8721598,5.78125063 51.7471592,5.65625 C51.6221586,5.53124937 51.5596592,5.40625062 51.5596592,5.28125 C51.5596592,5.18749953 51.5909089,5.07812563 51.6534092,4.953125 Z M40.5909092,15.5 L40.5909092,14 L64.5909092,14 L64.5909092,15.5 L40.5909092,15.5 Z" id="Payment-Icon"></path>
            </g>
        </g>
    </g>
</svg>