<?xml version="1.0" encoding="UTF-8"?>
<svg width="21px" height="20px" viewBox="0 0 21 20" version="1.1" xmlns="http://www.w3.org/2000/svg" xmlns:xlink="http://www.w3.org/1999/xlink">
    <defs></defs>
    <g id="Phone" stroke="none" stroke-width="1" fill="none" fill-rule="evenodd">
        <g id="ST_Account-Detail-A_Expanded---V2" transform="translate(-176.000000, -262.000000)" fill="#0F2D52">
            <g id="Group-11" transform="translate(136.000000, 263.000000)">
                <g id="Piggy-Bank" transform="translate(40.515152, 0.000000)">
                    <path d="M7.38883828,5.62267953 C7.19238479,5.62267953 6.99593129,5.45746502 6.94681792,5.23717901 C6.84859117,4.96182149 6.99593129,4.63139247 7.24149816,4.52124946 C8.27287901,4.08067743 9.45159999,3.91546292 10.6794343,3.91546292 C11.6617018,3.91546292 12.5948559,4.08067743 13.4788967,4.30096344 C13.7244635,4.35603495 13.8718037,4.68646397 13.8226903,4.96182149 C13.7735769,5.23717901 13.4788967,5.40239352 13.2333298,5.34732202 C12.4475158,5.127036 11.5634751,4.96182149 10.7285477,4.96182149 C9.59894011,4.96182149 8.56755926,5.127036 7.63440515,5.51253653 C7.48706503,5.62267953 7.43795166,5.62267953 7.38883828,5.62267953 L7.38883828,5.62267953 Z" id="Shape"></path>
                    <path d="M16.3018584,18 L15.0478693,18 C14.3244141,18 13.7938802,17.3508252 13.7938802,16.5934546 L13.7938802,15.2410071 C11.6717448,15.9442798 9.21199692,15.9983777 7.08986151,15.3492029 L7.08986151,16.5393567 C7.08986151,17.3508252 6.5110973,17.9459021 5.8358724,17.9459021 L4.53365294,17.9459021 C3.81019768,17.9459021 3.27966383,17.2967273 3.27966383,16.5393567 L3.27966383,13.0229932 C2.99028172,12.6984058 2.70089962,12.3738184 2.45974787,12.049231 L1.25398911,12.049231 C0.578764205,12.049231 0,11.4000562 0,10.6426856 L0,7.61320325 C0,6.90993056 0.578764205,6.26075576 1.25398911,6.26075576 L1.73629261,6.26075576 C2.02567472,5.55748306 2.45974787,4.85421037 2.99028172,4.25913347 C3.13497277,3.17717547 2.74912997,2.20341328 1.83275331,1.17555318 C1.68806226,1.06735739 1.63983191,0.850965786 1.68806226,0.688672087 C1.73629261,0.526378388 1.88098366,0.364084689 2.02567472,0.309986789 C4.00311908,-0.285090108 5.59472064,0.255888889 6.75224905,1.82472798 C7.86154711,1.44604268 9.06730587,1.22965108 10.2730646,1.22965108 C15.2407907,1.22965108 19.2921402,4.47552507 19.2921402,8.47876965 C19.2921402,9.99351084 18.6651456,11.508252 17.6040779,12.7525037 L17.6040779,16.5393567 C17.6040779,17.3508252 17.0253137,18 16.3018584,18 L16.3018584,18 Z M14.2761837,13.8885596 C14.3726444,13.8885596 14.4691051,13.9426575 14.5655658,13.9967554 C14.7102569,14.1049512 14.7584872,14.2672449 14.7584872,14.4295386 L14.7584872,16.5393567 C14.7584872,16.7557483 14.9031783,16.8639441 15.0478693,16.8639441 L16.3018584,16.8639441 C16.4947798,16.8639441 16.5912405,16.7016504 16.5912405,16.5393567 L16.5912405,12.5361121 C16.5912405,12.3738184 16.6394709,12.2656226 16.7359316,12.1574268 C17.7487689,11.0754688 18.2793028,9.83121714 18.2793028,8.53286755 C18.2793028,5.12469986 14.6620265,2.36570698 10.2248343,2.36570698 C8.97084517,2.36570698 7.76508641,2.58209858 6.65578835,3.01488178 C6.46286695,3.06897968 6.2217152,3.01488178 6.1252545,2.79849018 C5.35356889,1.55423848 4.34073153,1.06735739 3.03851207,1.22965108 C3.81019768,2.31160908 4.09957978,3.44766497 3.90665838,4.63781877 C3.90665838,4.74601457 3.85842803,4.85421037 3.76196733,4.90830827 C3.18320312,5.50338516 2.74912997,6.20665786 2.50797822,6.96402846 C2.41151752,7.23451795 2.21859612,7.34271375 2.02567472,7.34271375 L1.25398911,7.34271375 C1.10929806,7.34271375 0.964607008,7.50500745 0.964607008,7.66730115 L0.964607008,10.6967835 C0.964607008,10.8590772 1.10929806,11.0213709 1.25398911,11.0213709 L2.70089962,11.0213709 C2.84559067,11.0213709 2.99028172,11.1295667 3.08674242,11.2377625 C3.32789418,11.6705457 3.66550663,12.049231 4.05134943,12.3738184 C4.14781013,12.4820142 4.24427083,12.6443079 4.24427083,12.8066016 L4.24427083,16.5393567 C4.24427083,16.7557483 4.38896188,16.8639441 4.53365294,16.8639441 L5.78764205,16.8639441 C5.98056345,16.8639441 6.07702415,16.7016504 6.07702415,16.5393567 L6.07702415,14.5377344 C6.07702415,14.3754407 6.17348485,14.213147 6.26994555,14.1049512 C6.4146366,13.9967554 6.55932765,13.9967554 6.7040187,14.0508533 C7.81331676,14.4836365 9.01907552,14.7000281 10.2730646,14.7000281 C11.6235144,14.7000281 12.9257339,14.4295386 14.0832623,13.9426575 C14.179723,13.8885596 14.2279534,13.8885596 14.2761837,13.8885596 L14.2761837,13.8885596 Z" id="Shape" stroke="#0F2D52"></path>
                </g>
            </g>
        </g>
    </g>
</svg>