<?xml version="1.0" encoding="UTF-8"?>
<svg width="35px" height="33px" viewBox="0 0 35 33" version="1.1" xmlns="http://www.w3.org/2000/svg" xmlns:xlink="http://www.w3.org/1999/xlink">
    <defs></defs>
    <g id="Symbols" stroke="none" stroke-width="1" fill="none" fill-rule="evenodd">
        <g id="Header/-Home" transform="translate(-170.000000, -26.000000)" fill="#FFFFFF">
            <g id="Icons/-PenFed-Icon/-White" transform="translate(170.000000, 26.000000)">
                <g id="PenFed-Icon">
                    <path d="M33.5656764,11.3802573 L33.5661132,11.3802573 C33.5525723,11.3636587 33.5368474,11.3492442 33.5233065,11.3330825 C33.3258713,11.0937142 33.0886871,10.889727 32.8117537,10.7368458 C32.4924505,10.5293642 32.180136,10.367747 31.9984258,10.2362692 C31.9879425,10.2284067 32.3919857,10.5350427 31.8293829,12.4460575 L31.6454887,13.01827 L31.5926355,13.1825081 C31.4829978,13.5096738 31.4371335,13.6616814 31.4231557,13.7123506 L31.4131093,13.7420532 L30.6255527,16.1973251 L30.3569187,17.035114 L29.5697989,19.4886387 L26.1732157,30.1068924 C25.479572,32.189571 24.6081492,32.4769876 24.6081492,32.4769876 C25.721561,32.7456217 26.7139783,32.4957702 26.7576587,32.4839765 L26.7572219,32.4791716 C27.512455,32.2655748 28.1698441,31.702972 28.4830321,30.9210939 C28.4847793,30.9206571 28.4856529,30.9202203 28.4869633,30.9202203 L34.0186415,13.8350923 C34.2881492,12.9614855 34.0850356,12.0437616 33.5656764,11.3802573" id="Fill-29"></path>
                    <path d="M30.7599572,9.38598767 L30.7608308,9.38467726 C30.7573363,9.37943562 30.7520947,9.37506759 30.7481635,9.37026275 C30.7302545,9.34754897 30.7154032,9.32352478 30.6966207,9.30168462 C30.4983119,9.0684316 30.2589437,8.87361729 29.9850679,8.72685135 C29.6731903,8.52635859 29.3709224,8.36954617 29.1935802,8.24068917 C29.1826601,8.23282671 29.5976233,8.54557794 29.0048811,10.5177453 L28.8480687,11.0030338 L28.8056988,11.1353853 C28.6842674,11.4935641 28.6344718,11.6604229 28.6187469,11.7154602 L27.8255119,14.1755369 L27.5594987,14.9984745 L26.7658269,17.4598616 L22.6205627,30.3446882 C21.9631736,32.2080914 21.1943996,32.4505173 21.1943996,32.4505173 C21.4438143,32.5190955 21.680125,32.5588446 21.8994003,32.5802479 L21.8967795,32.5881104 C21.9037683,32.5863632 21.9094468,32.5837424 21.9159988,32.5815584 C22.7227747,32.6571253 23.2814462,32.4741047 23.2814462,32.4741047 C24.0305641,32.2609447 24.6827115,31.7031467 24.9958996,30.9282575 C25.0151189,30.8841404 28.8860706,18.9934783 28.8860706,18.9934783 L29.6841104,16.5456321 L29.9553653,15.7135216 L30.7547155,13.2634914 L30.9888421,12.5449498 L31.2203479,11.8355811 C31.4902924,10.9615375 31.28019,10.0490552 30.7599572,9.38598767" id="Fill-30"></path>
                    <path d="M27.9483847,7.30789552 C27.4997877,6.74747676 26.7161624,6.40764372 26.3806974,6.16390743 C26.3793869,6.16303382 26.3863758,6.16827546 26.3972959,6.18268997 C26.4671844,6.27441869 26.7096103,6.74966078 26.1753998,8.49818477 C26.130409,8.64582432 26.0801766,8.80088952 26.023829,8.96731162 C25.8412452,9.50064856 25.799312,9.66226582 25.799312,9.66226582 L24.999525,12.1358834 L24.7387534,12.9439697 L23.93984,15.4149665 L19.0515732,30.5711707 C18.4286916,32.2506798 17.8962282,32.5075202 17.8962282,32.5075202 C18.0394997,32.5350388 18.2133475,32.5603734 18.4029202,32.5782823 L18.3998625,32.5883288 C18.4090354,32.585708 18.4168979,32.5830872 18.4260707,32.5800295 C18.5693422,32.5935704 18.7196026,32.6036169 18.8768518,32.6049273 C20.1370296,32.6237099 21.0879506,32.0248524 21.5007298,30.9280391 C21.5037875,30.9254183 21.5064083,30.9227975 21.5103395,30.9201766 L26.0670725,16.9542617 L26.8707908,14.496369 L27.1376776,13.6791098 L27.9422695,11.2199067 L28.1724649,10.5157797 L28.4175116,9.76622503 C28.6887665,8.8878134 28.4777905,7.96921586 27.9483847,7.30789552" id="Fill-31"></path>
                    <path d="M26.3972522,6.18251525 L18.7252374,0.616766394 C17.9748091,0.0882342858 17.0361186,-0.000436803395 16.2428837,0.292221471 L16.2402629,0.287853437 C16.1970193,0.304015163 15.2264422,0.693643791 14.4677147,1.58472272 C14.4677147,1.58472272 15.3727713,1.29293805 17.2243809,2.63130365 C17.6808405,2.96152702 17.8158127,3.05980778 17.8158127,3.05980778 L17.8092607,3.0488877 L26.0233485,8.96713689 L26.1753561,8.49801005 C26.7095666,6.74992286 26.4671407,6.27424397 26.3972522,6.18251525" id="Fill-32"></path>
                    <path d="M25.7990063,9.66244054 L16.0364504,2.56875341 C15.2868958,2.0406581 14.3495157,1.95155021 13.5567175,2.24289807 C13.5567175,2.24289807 12.620211,2.54123479 11.8396434,3.5196744 C11.8396434,3.5196744 12.6315679,3.25322432 14.3202499,4.42647824 L25.0000929,12.1356214 L25.7990063,9.66244054 Z" id="Fill-33"></path>
                    <path d="M24.7385787,12.9438824 L13.2480286,4.57647653 C12.2245982,3.85531412 11.0369298,3.92127144 9.97287671,4.71887444 C9.66361991,4.94732261 9.39979066,5.19586374 9.21677004,5.39198847 C9.21677004,5.39198847 9.81562749,5.28322442 11.3527386,6.30752838 L23.9396653,15.415316 L24.7385787,12.9438824 Z" id="Fill-34"></path>
                    <path d="M18.1493558,30.5925304 C17.5260373,32.2720395 16.9927004,32.5306271 16.9927004,32.5306271 L6.64744879,32.5328111 L0.000174721358,12.0755609 L8.4636773,5.94983008 C8.4636773,5.94983008 9.09485821,5.74846372 10.3292646,6.64041625 C10.6341534,6.86056516 10.7250085,6.92739608 10.7250085,6.92739608 L16.6445681,11.262233 L10.863912,15.4411311 L13.3589329,23.1210083 L20.5587633,23.1210083 L18.1462982,30.6143706" id="Fill-35"></path>
                </g>
            </g>
        </g>
    </g>
</svg>