<?xml version="1.0" encoding="utf-8"?>
<!-- Generator: Adobe Illustrator 16.0.3, SVG Export Plug-In . SVG Version: 6.00 Build 0)  -->
<!DOCTYPE svg PUBLIC "-//W3C//DTD SVG 1.1//EN" "http://www.w3.org/Graphics/SVG/1.1/DTD/svg11.dtd">
<svg version="1.1" id="Layer_1" xmlns="http://www.w3.org/2000/svg" xmlns:xlink="http://www.w3.org/1999/xlink" x="0px" y="0px"
	 width="192.756px" height="182px" viewBox="0 0 192.756 182" enable-background="new 0 0 192.756 182" xml:space="preserve">
<g>
	<polygon fill-rule="evenodd" clip-rule="evenodd" fill="#BBB7B7" points="26.473,145.555 19.374,145.555 19.374,148.365 
		25.894,148.365 25.894,150.738 19.374,150.738 19.374,154.191 26.788,154.191 26.788,156.564 16.636,156.564 16.636,143.188 
		26.473,143.188 26.473,145.555 	"/>
	<path fill-rule="evenodd" clip-rule="evenodd" fill="#BBB7B7" d="M35.45,152.928l1.342,1.264c-0.502,0.266-1.046,0.357-1.509,0.357
		c-1.51,0-3.635-0.93-3.635-4.674s2.125-4.674,3.635-4.674c1.509,0,3.632,0.93,3.632,4.674c0,1.254-0.242,2.18-0.614,2.873
		l-1.416-1.322L35.45,152.928L35.45,152.928z M41.767,156.018l-1.457-1.371c0.82-1.045,1.4-2.572,1.4-4.771
		c0-6.277-4.658-7.039-6.428-7.039c-1.769,0-6.425,0.762-6.425,7.039c0,6.281,4.656,7.041,6.425,7.041
		c0.78,0,2.16-0.146,3.427-0.898l1.586,1.512L41.767,156.018L41.767,156.018z"/>
	<path fill-rule="evenodd" clip-rule="evenodd" fill="#BBB7B7" d="M54.863,151.889c0,3.514-2.127,5.027-5.499,5.027
		c-1.229,0-3.054-0.297-4.247-1.619c-0.725-0.814-1.006-1.906-1.042-3.242v-8.867h2.85v8.676c0,1.871,1.08,2.686,2.382,2.686
		c1.921,0,2.701-0.93,2.701-2.553v-8.809h2.855V151.889L54.863,151.889z"/>
	<path fill-rule="evenodd" clip-rule="evenodd" fill="#BBB7B7" d="M62.348,146.207h0.041l1.655,5.291H60.63L62.348,146.207
		L62.348,146.207z M59.885,153.801h4.938l0.858,2.764h3.037l-4.71-13.377h-3.225l-4.769,13.377h2.943L59.885,153.801L59.885,153.801
		z"/>
	<polygon fill-rule="evenodd" clip-rule="evenodd" fill="#BBB7B7" points="73.692,154.143 80.342,154.143 80.342,156.564 
		70.894,156.564 70.894,143.188 73.692,143.188 73.692,154.143 	"/>
	<polygon fill-rule="evenodd" clip-rule="evenodd" fill="#BBB7B7" points="90.938,150.562 90.938,156.564 88.148,156.564 
		88.148,143.188 90.938,143.188 90.938,148.254 96.156,148.254 96.156,143.188 98.947,143.188 98.947,156.564 96.156,156.564 
		96.156,150.562 90.938,150.562 	"/>
	<path fill-rule="evenodd" clip-rule="evenodd" fill="#BBB7B7" d="M104.273,149.875c0-3.744,2.128-4.674,3.63-4.674
		c1.513,0,3.638,0.93,3.638,4.674s-2.125,4.674-3.638,4.674C106.401,154.549,104.273,153.619,104.273,149.875L104.273,149.875z
		 M101.482,149.875c0,6.281,4.66,7.041,6.421,7.041c1.778,0,6.434-0.76,6.434-7.041c0-6.277-4.655-7.039-6.434-7.039
		C106.143,142.836,101.482,143.598,101.482,149.875L101.482,149.875z"/>
	<path fill-rule="evenodd" clip-rule="evenodd" fill="#BBB7B7" d="M127.676,151.889c0,3.514-2.127,5.027-5.5,5.027
		c-1.229,0-3.051-0.297-4.247-1.619c-0.727-0.814-1.007-1.906-1.04-3.242v-8.867h2.847v8.676c0,1.871,1.083,2.686,2.39,2.686
		c1.918,0,2.699-0.93,2.699-2.553v-8.809h2.852V151.889L127.676,151.889z"/>
	<path fill-rule="evenodd" clip-rule="evenodd" fill="#BBB7B7" d="M132.79,152.445c0.024,0.742,0.399,2.162,2.836,2.162
		c1.321,0,2.796-0.316,2.796-1.738c0-1.037-1.007-1.32-2.419-1.654l-1.436-0.336c-2.169-0.502-4.253-0.98-4.253-3.924
		c0-1.492,0.806-4.119,5.145-4.119c4.101,0,5.199,2.68,5.219,4.32h-2.686c-0.073-0.592-0.297-2.012-2.737-2.012
		c-1.06,0-2.328,0.391-2.328,1.602c0,1.049,0.859,1.264,1.412,1.395l3.263,0.801c1.826,0.447,3.5,1.195,3.5,3.596
		c0,4.027-4.096,4.379-5.271,4.379c-4.878,0-5.717-2.814-5.717-4.471H132.79L132.79,152.445z"/>
	<polygon fill-rule="evenodd" clip-rule="evenodd" fill="#BBB7B7" points="146.187,156.564 143.4,156.564 143.4,143.188 
		146.187,143.188 146.187,156.564 	"/>
	<polygon fill-rule="evenodd" clip-rule="evenodd" fill="#BBB7B7" points="157.35,143.188 159.955,143.188 159.955,156.564 
		157.164,156.564 151.708,147.023 151.662,147.023 151.662,156.564 149.058,156.564 149.058,143.188 152,143.188 157.304,152.504 
		157.35,152.504 157.35,143.188 	"/>
	<path fill-rule="evenodd" clip-rule="evenodd" fill="#BBB7B7" d="M169.307,149.355h5.585v7.209h-1.86l-0.28-1.674
		c-0.706,0.811-1.731,2.025-4.173,2.025c-3.221,0-6.144-2.309-6.144-7.002c0-3.648,2.031-7.098,6.535-7.078
		c4.105,0,5.727,2.66,5.866,4.51h-2.791c0-0.523-0.953-2.201-2.924-2.201c-1.998,0-3.84,1.377-3.84,4.803
		c0,3.654,1.994,4.602,3.894,4.602c0.614,0,2.669-0.238,3.241-2.943h-3.109V149.355L169.307,149.355z"/>
	<path fill-rule="evenodd" clip-rule="evenodd" fill="#BBB7B7" d="M18.836,170.197c0-3.744,2.123-4.678,3.63-4.678
		c1.509,0,3.631,0.934,3.631,4.678c0,3.742-2.122,4.68-3.631,4.68C20.959,174.877,18.836,173.939,18.836,170.197L18.836,170.197z
		 M16.042,170.197c0,6.275,4.656,7.047,6.425,7.047c1.77,0,6.426-0.771,6.426-7.047c0-6.277-4.657-7.039-6.426-7.039
		C20.698,163.158,16.042,163.92,16.042,170.197L16.042,170.197z"/>
	<path fill-rule="evenodd" clip-rule="evenodd" fill="#BBB7B7" d="M36.549,169.748v-3.934h2.217c1.731,0,2.458,0.545,2.458,1.85
		c0,0.596,0,2.084-2.088,2.084H36.549L36.549,169.748z M36.549,172.061h3.202c3.597,0,4.265-3.057,4.265-4.266
		c0-2.625-1.561-4.285-4.153-4.285h-6.107v13.377h2.793V172.061L36.549,172.061z"/>
	<path fill-rule="evenodd" clip-rule="evenodd" fill="#BBB7B7" d="M51.599,169.748v-3.934h2.213c1.733,0,2.46,0.545,2.46,1.85
		c0,0.596,0,2.084-2.083,2.084H51.599L51.599,169.748z M51.599,172.061h3.204c3.594,0,4.267-3.057,4.267-4.266
		c0-2.625-1.562-4.285-4.153-4.285h-6.112v13.377h2.795V172.061L51.599,172.061z"/>
	<path fill-rule="evenodd" clip-rule="evenodd" fill="#BBB7B7" d="M66.057,170.197c0-3.744,2.118-4.678,3.633-4.678
		c1.502,0,3.63,0.934,3.63,4.678c0,3.742-2.127,4.68-3.63,4.68C68.175,174.877,66.057,173.939,66.057,170.197L66.057,170.197z
		 M63.262,170.197c0,6.275,4.655,7.047,6.428,7.047c1.765,0,6.421-0.771,6.421-7.047c0-6.277-4.656-7.039-6.421-7.039
		C67.917,163.158,63.262,163.92,63.262,170.197L63.262,170.197z"/>
	<path fill-rule="evenodd" clip-rule="evenodd" fill="#BBB7B7" d="M83.717,169.396v-3.582h3.479c1.64,0,1.954,1.049,1.954,1.756
		c0,1.324-0.705,1.826-2.159,1.826H83.717L83.717,169.396z M80.971,176.887h2.746v-5.236h2.882c2.07,0,2.184,0.707,2.184,2.533
		c0,1.375,0.105,2.064,0.292,2.703h3.095v-0.361c-0.596-0.219-0.596-0.707-0.596-2.654c0-2.506-0.596-2.91-1.694-3.396
		c1.322-0.443,2.064-1.713,2.064-3.182c0-1.158-0.648-3.783-4.206-3.783h-6.767V176.887L80.971,176.887z"/>
	<polygon fill-rule="evenodd" clip-rule="evenodd" fill="#BBB7B7" points="102.355,176.887 99.562,176.887 99.562,165.877 
		95.522,165.877 95.522,163.51 106.401,163.51 106.401,165.877 102.355,165.877 102.355,176.887 	"/>
	<path fill-rule="evenodd" clip-rule="evenodd" fill="#BBB7B7" d="M121.395,172.205c0,3.52-2.123,5.039-5.497,5.039
		c-1.224,0-3.05-0.309-4.245-1.631c-0.727-0.814-1.007-1.896-1.04-3.236v-8.867h2.847v8.678c0,1.863,1.083,2.689,2.385,2.689
		c1.918,0,2.699-0.938,2.699-2.559v-8.809h2.852V172.205L121.395,172.205z"/>
	<polygon fill-rule="evenodd" clip-rule="evenodd" fill="#BBB7B7" points="134.916,163.51 137.529,163.51 137.529,176.887 
		134.729,176.887 129.271,167.346 129.241,167.346 129.241,176.887 126.627,176.887 126.627,163.51 129.569,163.51 134.883,172.822 
		134.916,172.822 134.916,163.51 	"/>
	<polygon fill-rule="evenodd" clip-rule="evenodd" fill="#BBB7B7" points="145.412,176.887 142.609,176.887 142.609,163.51 
		145.412,163.51 145.412,176.887 	"/>
	<polygon fill-rule="evenodd" clip-rule="evenodd" fill="#BBB7B7" points="156.32,176.887 153.526,176.887 153.526,165.877 
		149.491,165.877 149.491,163.51 160.365,163.51 160.365,165.877 156.32,165.877 156.32,176.887 	"/>
	<polygon fill-rule="evenodd" clip-rule="evenodd" fill="#BBB7B7" points="170.928,176.887 168.13,176.887 168.13,171.836 
		163.513,163.51 166.808,163.51 169.584,169.324 172.235,163.51 175.397,163.51 170.928,171.871 170.928,176.887 	"/>
	<path fill-rule="evenodd" clip-rule="evenodd" fill="#BBB7B7" d="M95.706,3.842L5.645,48.199v20.835h10.08v62.503h159.282V69.034
		h12.104V48.199L95.706,3.842L95.706,3.842z M155.521,112.713H35.216V55.592l60.49-30.914l59.816,30.914V112.713L155.521,112.713z"
		/>
	<polygon fill-rule="evenodd" clip-rule="evenodd" fill="#BBB7B7" points="123.257,75.749 67.479,75.749 67.479,55.592 
		123.257,55.592 123.257,75.749 	"/>
	<polygon fill-rule="evenodd" clip-rule="evenodd" fill="#BBB7B7" points="123.257,104.662 67.479,104.662 67.479,84.491 
		123.257,84.491 123.257,104.662 	"/>
</g>
</svg>
