<?xml version="1.0" encoding="UTF-8"?>
<svg width="30px" height="28px" viewBox="0 0 30 28" version="1.1" xmlns="http://www.w3.org/2000/svg" xmlns:xlink="http://www.w3.org/1999/xlink">
    <!-- Generator: Sketch 45.1 (43504) - http://www.bohemiancoding.com/sketch -->
    <title>globalnav_icon_auto_39x35</title>
    <desc>Created with Sketch.</desc>
    <defs></defs>
    <g id="Products-V3" stroke="none" stroke-width="1" fill="none" fill-rule="evenodd">
        <g id="All-Products-Overview-v3" transform="translate(-14.000000, -759.000000)" stroke="#0F2D52" stroke-width="2.9170206">
            <g id="globalnav_icon_auto_39x35" transform="translate(17.000000, 762.000000)">
                <path d="M17.8267132,20.1113 L5.31223049,20.1113 C5.24758947,21.5820986 4.0585096,22.7759842 2.57099194,22.7759842 L1.28549597,22.7759842 C-0.23895232,22.7759842 -1.4585103,21.511983 -1.4585103,19.9851318 L-1.4585103,9.08856471 L-1.38295632,8.86305469 L1.29096061,0.88207082 C1.75494823,-0.501972176 3.03281741,-1.4585103 4.49923589,-1.4585103 L18.6396916,-1.4585103 C20.10611,-1.4585103 21.3839792,-0.501972176 21.8479668,0.88207082 L21.8480522,0.882325388 L24.5974377,9.08856471 L24.5974377,19.9851318 C24.5974377,21.5132088 23.3832638,22.7759842 21.8534315,22.7759842 L20.5679355,22.7759842 C19.0856852,22.7759842 17.8916797,21.5809918 17.8267132,20.1113 Z M4.49923589,13.197253 C4.74877204,13.197253 4.96896955,12.9690311 4.96896955,12.6572501 C4.96896955,12.3454692 4.74877204,12.1172473 4.49923589,12.1172473 C4.24969974,12.1172473 4.02950224,12.3454692 4.02950224,12.6572501 C4.02950224,12.9690311 4.24969974,13.197253 4.49923589,13.197253 Z M18.6396916,13.197253 C18.8892277,13.197253 19.1094252,12.9690311 19.1094252,12.6572501 C19.1094252,12.3454692 18.8892277,12.1172473 18.6396916,12.1172473 C18.3901554,12.1172473 18.1699579,12.3454692 18.1699579,12.6572501 C18.1699579,12.9690311 18.3901554,13.197253 18.6396916,13.197253 Z M4.57215298,6.53554242 L18.5667745,6.53554242 L17.5766825,3.45702348 L5.56224494,3.45702348 L4.57215298,6.53554242 Z" id="Shape"></path>
            </g>
        </g>
    </g>
</svg>