<?xml version="1.0" encoding="UTF-8"?>
<svg width="34px" height="24px" viewBox="0 0 34 24" version="1.1" xmlns="http://www.w3.org/2000/svg" xmlns:xlink="http://www.w3.org/1999/xlink">
    <!-- Generator: Sketch 45.1 (43504) - http://www.bohemiancoding.com/sketch -->
    <title>globalnav_icon_cards_48x34</title>
    <desc>Created with Sketch.</desc>
    <defs></defs>
    <g id="Products-V3" stroke="none" stroke-width="1" fill="none" fill-rule="evenodd">
        <g id="All-Products-Overview-v3" transform="translate(-16.000000, -551.000000)" fill="#0F2D52">
            <g id="globalnav_icon_cards_48x34" transform="translate(16.000000, 551.000000)">
                <g id="globalnav_icons_cards_48x34">
                    <path d="M30.4030495,23.5643564 L2.9553124,23.5643564 C1.35973211,23.5643564 0.066076917,22.2454889 0.066076917,20.6188119 L0.066076917,2.94554455 C0.066076917,1.31886757 1.35973211,0 2.9553124,0 L30.4030495,0 C31.9986298,0 33.292285,1.31886757 33.292285,2.94554455 L33.292285,20.6188119 C33.292285,22.2454889 31.9986298,23.5643564 30.4030495,23.5643564 L30.4030495,23.5643564 Z M1.51069466,9.5730198 L31.8476673,9.5730198 L31.8476673,6.62747525 L1.51069466,6.62747525 L1.51069466,9.5730198 L1.51069466,9.5730198 Z M31.8476673,2.94554455 C31.8476673,2.13257426 31.2004785,1.47277228 30.4030495,1.47277228 L2.9553124,1.47277228 C2.15788341,1.47277228 1.51069466,2.13257426 1.51069466,2.94554455 L1.51069466,5.15470297 L31.8476673,5.15470297 L31.8476673,2.94554455 L31.8476673,2.94554455 Z M31.8476673,11.0457921 L1.51069466,11.0457921 L1.51069466,20.6188119 C1.51069466,21.4317822 2.15788341,22.0915842 2.9553124,22.0915842 L30.4030495,22.0915842 C31.2004785,22.0915842 31.8476673,21.4317822 31.8476673,20.6188119 L31.8476673,11.0457921 L31.8476673,11.0457921 Z M18.1237987,15.4641089 L15.2345632,15.4641089 C14.8351264,15.4641089 14.5122544,15.1349443 14.5122544,14.7277228 C14.5122544,14.3212376 14.8351264,13.9913366 15.2345632,13.9913366 L18.1237987,13.9913366 C18.5232355,13.9913366 18.8461076,14.3212376 18.8461076,14.7277228 C18.8461076,15.1349443 18.5232355,15.4641089 18.1237987,15.4641089 L18.1237987,15.4641089 Z M11.6230189,15.4641089 L5.12223902,15.4641089 C4.72280221,15.4641089 4.39993015,15.1349443 4.39993015,14.7277228 C4.39993015,14.3212376 4.72280221,13.9913366 5.12223902,13.9913366 L11.6230189,13.9913366 C12.0224557,13.9913366 12.3453277,14.3212376 12.3453277,14.7277228 C12.3453277,15.1349443 12.0224557,15.4641089 11.6230189,15.4641089 L11.6230189,15.4641089 Z M5.12223902,17.6732673 L9.45609225,17.6732673 C9.85552906,17.6732673 10.1784011,18.0031683 10.1784011,18.4096535 C10.1784011,18.816875 9.85552906,19.1460396 9.45609225,19.1460396 L5.12223902,19.1460396 C4.72280221,19.1460396 4.39993015,18.816875 4.39993015,18.4096535 C4.39993015,18.0031683 4.72280221,17.6732673 5.12223902,17.6732673 L5.12223902,17.6732673 Z" id="Shape"></path>
                </g>
            </g>
        </g>
    </g>
</svg>