<?xml version="1.0" encoding="UTF-8"?>
<svg width="36px" height="29px" viewBox="0 0 36 29" version="1.1" xmlns="http://www.w3.org/2000/svg" xmlns:xlink="http://www.w3.org/1999/xlink">
    <!-- Generator: Sketch 45.1 (43504) - http://www.bohemiancoding.com/sketch -->
    <title>globalnav_icon_checking_58x46</title>
    <desc>Created with Sketch.</desc>
    <defs>
        <polygon id="path-1" points="0.04330946 0.0159524832 3.63473567 0.0159524832 3.63473567 4.32059483 0.04330946 4.32059483 0.04330946 0.0159524832"></polygon>
    </defs>
    <g id="Products-V3" stroke="none" stroke-width="1" fill="none" fill-rule="evenodd">
        <g id="All-Products-Overview-v3" transform="translate(-16.000000, -186.000000)">
            <g id="globalnav_icon_checking_58x46" transform="translate(16.000000, 186.000000)">
                <polygon id="Fill-16" fill="#0F2D52" points="11.2533765 11.8785641 3.12593792 11.8785641 3.12593792 15.1094159 11.2533765 15.1094159"></polygon>
                <path d="M31.2032751,25.4152644 C31.2032751,25.7668814 30.976782,26.0529773 30.6984068,26.0529773 L18.1662394,26.0529773 C17.8878642,26.0529773 17.6614256,25.7668814 17.6614256,25.4152644 L17.6614256,25.3956688 C17.6614256,25.0440518 17.8878642,24.758011 18.1662394,24.758011 L30.6984068,24.758011 C30.976782,24.758011 31.2032751,25.0440518 31.2032751,25.3956688 L31.2032751,25.4152644 Z M30.6984068,24.1026344 L18.1662394,24.1026344 C17.5311211,24.1026344 17.0144268,24.6827197 17.0144268,25.3956688 L17.0144268,25.4152644 C17.0144268,26.1282134 17.5311211,26.7082987 18.1662394,26.7082987 L30.6984068,26.7082987 C31.3335795,26.7082987 31.8502739,26.1282134 31.8502739,25.4152644 L31.8502739,25.3956688 C31.8502739,24.6827197 31.3335795,24.1026344 30.6984068,24.1026344 L30.6984068,24.1026344 Z" id="Fill-1" fill="#0F2D52"></path>
                <path d="M32.1690701,22.0586963 L32.1690701,21.962871 C32.1690701,21.7297109 31.9824694,21.5407098 31.7522704,21.5407098 L3.17069717,21.5407098 C2.94049816,21.5407098 2.75389744,21.7297109 2.75389744,21.962871 L2.75389744,22.0586963 C2.75389744,22.2918565 2.94049816,22.4808023 3.17069717,22.4808023 L31.7522704,22.4808023 C31.9824694,22.4808023 32.1690701,22.2918565 32.1690701,22.0586963" id="Fill-3" fill="#0F2D52"></path>
                <path d="M20.085709,20.957412 C20.3441924,20.7902145 20.6436037,20.7395971 20.9441595,20.7155304 C21.3365442,20.6841774 21.7126885,20.6848398 22.0299206,20.63356 C22.1559742,20.6148476 22.3048624,20.5958039 22.4217058,20.5413226 C22.4917901,20.5086449 22.6321221,20.433188 22.5411651,20.3267645 C22.4985478,20.2769751 22.0881243,20.3649069 22.0095929,20.3659557 C21.7096911,20.3737387 21.3502776,20.3331675 20.9317884,20.3262677 C20.7226256,20.3248325 20.496078,20.3330572 20.2567233,20.3906296 C20.1027668,20.4276681 19.9524072,20.5359131 19.7987777,20.5468425 C19.7921289,20.2244257 19.8688619,19.9039961 19.9678301,19.5996845 C20.0515933,19.3424024 20.3251181,19.0374285 20.2852802,18.7584532 C20.1010229,18.7587292 19.9587289,18.9698098 19.841613,19.0875491 C19.6565382,19.2735142 19.4625803,19.4694151 19.2605567,19.636171 C18.7561788,20.0524811 18.6270734,20.1039265 18.3703339,20.2417582 C18.1276004,20.3560751 17.8245377,20.5202366 17.560332,20.5653341 C17.4996759,20.5757115 17.4295371,20.5557847 17.3986913,20.5018002 C17.1495815,20.0658393 18.8136741,19.1296659 19.0812587,18.8961193 C19.1723246,18.8167433 19.3787626,18.6672094 19.3856838,18.5338489 C19.3975643,18.3053806 19.035099,18.336292 18.8834859,18.3647746 C17.9632893,18.537768 16.9124068,19.3217028 16.7252066,20.2945835 C16.6823713,20.5171455 16.7024265,20.7582543 16.8160001,20.9536584 C17.2096927,21.6308386 18.1688008,21.105069 18.6456027,20.8402799 C18.8899711,20.704601 19.2488396,20.4471533 19.2125985,20.4562611 C19.2390845,20.4278889 19.2704208,20.3977503 19.302193,20.359939 C19.3126566,20.3474641 19.3233382,20.3352651 19.3352732,20.3243909 C19.1340126,20.5076513 19.5508123,21.2075182 19.6595356,21.3619647 C19.6275998,21.316536 20.0391133,20.9875506 20.085709,20.957412" id="Fill-5" fill="#0F2D52"></path>
                <path d="M24.4800796,18.3433906 C24.5158847,18.2830582 24.5895113,18.2631314 24.6442272,18.3007218 C24.7057553,18.3427282 24.7238486,18.4359039 24.6833022,18.5043506 C24.6542548,18.5533672 24.6005744,18.5757228 24.5507633,18.5605983 L24.5171926,18.5500001 L24.4934316,18.5208551 C24.4530486,18.4713416 24.4476534,18.3983135 24.4800796,18.3433906 L24.4800796,18.3433906 Z M26.5694191,17.6179666 L26.095669,18.342397 L26.0907642,18.4189027 C26.0824261,18.5492273 26.018936,18.6816495 25.9365898,18.7409883 L23.7599447,20.3041108 L24.5886394,18.9031075 C24.7451027,18.9011203 24.8871242,18.8169972 24.9693615,18.6778407 C25.1000474,18.4572107 25.0379743,18.162559 24.8307734,18.0206978 C24.7564928,17.9699148 24.6705497,17.9431985 24.5821541,17.9431985 C24.4232383,17.9431985 24.2782195,18.0277633 24.1940203,18.1697348 C24.110366,18.3114304 24.1038263,18.483927 24.1699322,18.6292105 L23.3549165,20.0075823 L23.7480642,17.2284831 C23.7632146,17.1214525 23.8464328,17.0032716 23.9504693,16.9407312 L24.0157032,16.9016504 L24.4266717,16.1319017 C24.4717959,16.055396 24.6001929,16.0440251 24.6726751,16.0440251 C24.9541566,16.0440251 25.3608742,16.2025011 25.7340212,16.4577408 C26.3954073,16.9095439 26.6704581,17.44685 26.5694191,17.6179666 L26.5694191,17.6179666 Z M31.9368601,3.18991153 L24.5276017,15.7184619 C24.3099917,15.7532924 24.1970721,15.8629174 24.1406123,15.9584116 L23.7611436,16.5997124 C23.7443583,16.6272567 23.7308428,16.6574505 23.7201067,16.690901 C23.5600465,16.809965 23.4441295,16.9954886 23.417916,17.1806809 L22.9330485,20.6086984 C22.918443,20.7129139 22.9335389,20.7894196 22.9793716,20.8430177 C23.0370304,20.91025 23.1609041,20.9678777 23.239817,21.0017146 C23.3339893,21.0421202 23.3614562,21.0042537 23.4470724,20.9427622 C23.4471814,20.942707 26.1295122,19.0163756 26.1295122,19.0163756 C26.276166,18.9106697 26.3841263,18.7184119 26.4157351,18.5127408 C26.4389511,18.4883429 26.4585159,18.4624546 26.4744838,18.4349104 L26.8554784,17.7914567 C26.9371162,17.6532387 26.941476,17.4898499 26.890466,17.3171878 L34.2930757,4.80028435 L31.9368601,3.18991153 Z" id="Fill-7" fill="#0F2D52"></path>
                <g id="Group-11" transform="translate(32.153745, 0.039246)">
                    <mask id="mask-2" fill="white">
                        <use xlink:href="#path-1"></use>
                    </mask>
                    <g id="Clip-10"></g>
                    <path d="M3.21372324,0.146453731 C2.56312763,-0.298228637 1.39202283,0.430176097 0.597552832,1.77288943 L0.04330946,2.71027721 L0.0906136141,2.74262377 L0.0907226098,2.74240298 L2.35243885,4.28819308 L2.35232986,4.28841387 L2.39947052,4.32059483 L2.95376839,3.38326225 C3.74802039,2.04027292 3.86437335,0.591191299 3.21372324,0.146453731" id="Fill-9" fill="#0F2D52" mask="url(#mask-2)"></path>
                </g>
                <path d="M2.75392469,17.5226822 L2.75392469,17.6186731 C2.75392469,17.8518333 2.94047091,18.0408344 3.17072442,18.0408344 L22.9108896,18.0408344 L23.0403221,17.1259125 C23.0414665,17.1173567 23.0437009,17.1090217 23.0451179,17.1005762 L3.17072442,17.1005762 C2.94047091,17.1005762 2.75392469,17.2895221 2.75392469,17.5226822" id="Fill-12" fill="#0F2D52"></path>
                <path d="M32.1690701,17.5226822 C32.1690701,17.2895221 31.9824694,17.1005762 31.7522704,17.1005762 L27.4632332,17.1005762 L27.2949983,17.3850714 C27.3329833,17.657202 27.2595202,17.8599475 27.1828417,17.9898306 L27.1526498,18.0408344 L31.7522704,18.0408344 C31.9824694,18.0408344 32.1690701,17.8518333 32.1690701,17.6186731 L32.1690701,17.5226822 Z" id="Fill-14" fill="#0F2D52"></path>
                <path d="M34.506146,9.23185106 L32.1169047,9.23185106 L31.6175952,10.0761735 L34.0894008,10.0761735 L34.0894008,27.8983539 L0.833599471,27.8983539 L0.833599471,10.0761735 L27.419733,10.0761735 L27.9190425,9.23185106 L0.416799736,9.23185106 C0.186600718,9.23185106 0,9.4208521 0,9.65401227 L0,28.3205152 C0,28.5536753 0.186600718,28.7426764 0.416799736,28.7426764 L34.506146,28.7426764 C34.7363995,28.7426764 34.9229457,28.5536753 34.9229457,28.3205152 L34.9229457,9.65401227 C34.9229457,9.4208521 34.7363995,9.23185106 34.506146,9.23185106" id="Fill-18" fill="#0F2D52"></path>
            </g>
        </g>
    </g>
</svg>