<?xml version="1.0" encoding="UTF-8"?>
<svg width="36px" height="35px" viewBox="0 0 36 35" version="1.1" xmlns="http://www.w3.org/2000/svg" xmlns:xlink="http://www.w3.org/1999/xlink">
    <!-- Generator: Sketch 45.1 (43504) - http://www.bohemiancoding.com/sketch -->
    <title>globalnav_icon_certificates_46x46</title>
    <desc>Created with Sketch.</desc>
    <defs></defs>
    <g id="Products-V3" stroke="none" stroke-width="1" fill="none" fill-rule="evenodd">
        <g id="All-Products-Overview-v3" transform="translate(-16.000000, -343.000000)" fill="#0F2D52">
            <g id="globalnav_icon_certificates_46x46" transform="translate(16.000000, 343.000000)">
                <g id="globalnav_icons_certificates_46x46">
                    <path d="M18.5192626,11.8530481 L18.5192626,12.4296502 C18.5192626,12.5055319 18.4503739,12.5678743 18.3667702,12.5678743 L17.9437844,12.5678743 C17.8599699,12.5678743 17.7913155,12.5055319 17.7913155,12.4296502 L17.7913155,11.8740884 C17.351131,11.8341308 16.9886454,11.6937838 16.7036478,11.45267 C16.4482911,11.2367243 16.3112401,10.9298008 16.2921903,10.5313333 C16.2901752,10.4849126 16.2924246,10.4395298 16.3338984,10.4025678 C16.3753487,10.3655587 16.478424,10.3709839 16.478424,10.3709839 L16.9782183,10.3709839 C16.9782183,10.3709839 17.0942278,10.3596382 17.1309215,10.3993127 C17.1678262,10.4400723 17.1633273,10.4781429 17.1689743,10.5275356 C17.1941164,10.754025 17.2770405,10.9206252 17.4177234,11.0280437 C17.5892187,11.1584602 17.8058431,11.2234916 18.0677137,11.2234916 C18.3468534,11.2234916 18.5607129,11.1640977 18.7102529,11.044791 C18.8595351,10.9252012 18.9340942,10.7624222 18.9340942,10.5567137 C18.9340942,10.3685543 18.8663302,10.2130404 18.7308726,10.0907616 C18.5947121,9.96763367 18.3627166,9.85429463 18.0346519,9.7503435 C17.5158311,9.60025477 17.1266101,9.41152934 16.8671998,9.18452102 C16.6078129,8.95774858 16.4779788,8.64865496 16.4779788,8.25695711 C16.4779788,7.88790348 16.6016738,7.58527289 16.8488529,7.34960788 C17.0815279,7.1277181 17.3971036,6.99164048 17.7929323,6.93955877 L17.7929323,6.34375629 C17.7929323,6.26841708 17.8613523,6.20635776 17.9454012,6.20635776 L18.3681527,6.20635776 C18.4522015,6.20635776 18.5203873,6.26841708 18.5203873,6.34375629 L18.5203873,6.94710685 C18.9118811,7.00598182 19.2190918,7.154443 19.4411289,7.3941651 C19.6479823,7.61876747 19.7619298,7.90519328 19.7825495,8.25450398 C19.7832056,8.26450518 19.7984127,8.34819445 19.7507998,8.38515642 C19.7102867,8.41676398 19.6221374,8.41622146 19.6221374,8.41622146 L19.0634596,8.41622146 C19.0634596,8.41622146 18.9904939,8.4226845 18.9472393,8.38194849 C18.9123263,8.3492559 18.9059998,8.28608795 18.9052969,8.27882293 C18.8842553,8.08629988 18.8180847,7.92896971 18.7068553,7.80746931 C18.5693357,7.65818257 18.3771972,7.58366893 18.1302525,7.58366893 C17.8706078,7.58366893 17.6787271,7.6438884 17.553673,7.76428018 C17.4288299,7.88467196 17.3665489,8.04716783 17.3665489,8.25044689 C17.3665489,8.44051682 17.4313371,8.59331814 17.5609134,8.70830833 C17.6907474,8.82358157 17.9308971,8.93939732 18.2806828,9.05655758 C18.7997379,9.2093589 19.1871546,9.39857967 19.4429331,9.62429067 C19.698735,9.84969502 19.8264836,10.1585056 19.8264836,10.5499676 C19.8262728,10.9324662 19.6971182,11.2380924 19.438856,11.4656433 C19.2091099,11.6689223 18.9019227,11.7977113 18.5192626,11.8530481 Z" id="Fill-1"></path>
                    <path d="M13.9400614,9.60455358 C13.9400614,7.45550304 15.6910725,5.70705923 17.8432786,5.70705923 C19.9954846,5.70705923 21.7464957,7.45550304 21.7464957,9.60455358 C21.7464957,11.7536041 19.9954846,13.5020479 17.8432786,13.5020479 C15.6910725,13.5020479 13.9400614,11.7536041 13.9400614,9.60455358 M22.8617006,9.60455358 C22.8617006,6.84136928 20.6105201,4.59348941 17.8432786,4.59348941 C15.076037,4.59348941 12.8248565,6.84136928 12.8248565,9.60455358 C12.8248565,12.3677379 15.076037,14.6156178 17.8432786,14.6156178 C20.6105201,14.6156178 22.8617006,12.3677379 22.8617006,9.60455358" id="Fill-3" stroke="#FFFFFF" stroke-width="0.25"></path>
                    <path d="M34.5713522,5.08752466 C32.5568739,4.8353011 30.9566943,3.2376068 30.7042398,1.22608213 L34.5713522,1.22608213 L34.5713522,5.08752466 Z M34.5713522,20.7413932 C31.941002,21.0034997 29.8433016,23.0981245 29.5808102,25.7246181 L22.6491147,25.7246181 L22.7143542,25.6491737 C22.8573792,25.4843654 22.8909748,25.2514901 22.8003644,25.0532747 L22.3199899,24.0030391 L22.4844826,22.8602381 C22.5157083,22.644484 22.4175703,22.4304002 22.2341191,22.312501 L21.2612422,21.6883451 L20.7808677,20.6381096 C20.6902573,20.4398941 20.4920296,20.3125296 20.2738677,20.3125296 L19.1175396,20.3125296 L18.1446627,19.6885129 C17.9610721,19.5706137 17.725485,19.5706137 17.541755,19.6885129 L16.5690175,20.3125296 L15.4128289,20.3125296 C15.1945275,20.3125296 14.9962998,20.4398941 14.90555,20.6381096 L14.4253149,21.6883451 L13.452438,22.312501 C13.2688474,22.4304002 13.1709882,22.644484 13.2020745,22.8602381 L13.3665672,24.0030391 L12.8861927,25.0532747 C12.7955823,25.2514901 12.8291779,25.4843654 12.9720635,25.6491737 L13.0375818,25.7246181 L6.10560748,25.7246181 C5.84325553,23.0981245 3.74555509,21.0034997 1.11520491,20.7413932 L1.11520491,6.20930705 C3.74555509,5.94720056 5.84325553,3.85257573 6.10560748,1.22608213 L29.5808102,1.22608213 C29.8433016,3.85257573 31.941002,5.94720056 34.5713522,6.20930705 L34.5713522,20.7413932 Z M34.5713522,25.7246181 L30.7042398,25.7246181 C30.9566943,23.7130934 32.5568739,22.1152599 34.5713522,21.8631755 L34.5713522,25.7246181 Z M21.0072543,25.9160129 C20.9371358,25.9967467 20.8918306,26.0957152 20.8767753,26.2015044 L20.7397445,27.1519362 L19.8171912,27.4225337 C19.7145924,27.4526 19.6228668,27.5113409 19.5528877,27.5920747 L18.9230757,28.3178438 L18.000383,28.0471071 C17.9490836,28.0322131 17.8961114,28.0245573 17.8432786,28.0245573 C17.7904457,28.0245573 17.7374735,28.0322131 17.6861741,28.0471071 L16.7634814,28.3178438 L16.1336694,27.5920747 C16.0636903,27.5113409 15.9719647,27.4526 15.8693659,27.4225337 L14.9466732,27.1519362 L14.8099212,26.2015044 C14.7945871,26.0957152 14.7492819,25.9967467 14.6793028,25.9160129 L14.0496303,25.1902438 L14.449013,24.3167874 C14.4934818,24.2197677 14.5089553,24.1120298 14.4937606,24.0063799 L14.3568692,23.0558088 L15.1659504,22.5366069 C15.2558638,22.4789797 15.3272369,22.3968539 15.3717057,22.2995557 L15.7712278,21.4260994 L16.7328133,21.4260994 C16.8397335,21.4260994 16.9444234,21.3954762 17.0343368,21.3377098 L17.8432786,20.8186471 L18.6522203,21.3377098 C18.7421337,21.3954762 18.8466842,21.4260994 18.9537438,21.4260994 L19.9153293,21.4260994 L20.3148514,22.2995557 C20.3593202,22.3968539 20.4306933,22.4789797 20.5206067,22.5366069 L21.3296879,23.0558088 L21.1926571,24.0063799 C21.1776018,24.1120298 21.1930753,24.2197677 21.2375441,24.3167874 L21.6370663,25.1902438 L21.0072543,25.9160129 Z M22.3077226,31.998888 L21.3241119,31.7533459 C21.1339694,31.7057408 20.9330932,31.7614193 20.7946683,31.8997803 L19.8880068,32.8051126 L19.3301255,29.4631503 C19.40582,29.4307176 19.4751021,29.3821381 19.5311412,29.3174119 L20.2883653,28.4449299 L20.3244701,28.434351 L22.3077226,31.998888 Z M15.7985504,32.8051126 L14.8920282,31.8997803 C14.7533246,31.7614193 14.5521695,31.7057408 14.3624452,31.7533459 L13.3788345,31.998888 L15.362087,28.434351 L15.3980524,28.4449299 L16.1554159,29.3174119 C16.211455,29.3821381 16.2805977,29.430996 16.3562922,29.4635679 L15.7985504,32.8051126 Z M1.11520491,25.7246181 L1.11520491,21.8631755 C3.12968318,22.1152599 4.72986282,23.7130934 4.98231733,25.7246181 L1.11520491,25.7246181 Z M1.11520491,1.22608213 L4.98231733,1.22608213 C4.72986282,3.2376068 3.12968318,4.8353011 1.11520491,5.08752466 L1.11520491,1.22608213 Z M35.1289547,0.11251231 L0.557602455,0.11251231 C0.249666499,0.11251231 0,0.361812753 0,0.669297218 L0,26.281403 C0,26.5888875 0.249666499,26.8381879 0.557602455,26.8381879 L13.7748716,26.8381879 L13.8937804,27.6644567 C13.9237515,27.8722767 14.0684493,28.0437664 14.2661194,28.1109982 L11.7797701,32.5798931 C11.671874,32.7737934 11.6895779,33.0130717 11.8247965,33.1892941 C11.9600151,33.365099 12.1865411,33.4441624 12.4024726,33.3904327 L14.3266193,32.9102057 L15.7761069,34.3575681 C15.8824695,34.4636356 16.024937,34.5207061 16.1704712,34.5207061 C16.2273466,34.5207061 16.2847797,34.5120759 16.3406793,34.4941196 C16.5394646,34.4305069 16.6861141,34.2611051 16.720546,34.0553731 L17.5215419,29.2560264 L17.8432786,29.1617905 L18.1650152,29.2560264 L18.9660111,34.0553731 C19.0004431,34.2611051 19.1470925,34.4305069 19.3458778,34.4941196 C19.4019168,34.5120759 19.4590711,34.5207061 19.5159465,34.5207061 C19.6616202,34.5207061 19.8040876,34.4636356 19.9103109,34.3575681 L21.3600772,32.9102057 L23.2840845,33.3904327 C23.4995979,33.4440232 23.7264027,33.365099 23.8617607,33.1892941 C23.9969792,33.0130717 24.0146831,32.7737934 23.9067871,32.5798931 L21.4204377,28.1109982 C21.6179684,28.0437664 21.7626662,27.8722767 21.7926373,27.6644567 L21.9116855,26.8381879 L35.1289547,26.8381879 C35.4368906,26.8381879 35.6865571,26.5888875 35.6865571,26.281403 L35.6865571,0.669297218 C35.6865571,0.361812753 35.4368906,0.11251231 35.1289547,0.11251231 L35.1289547,0.11251231 Z" id="Fill-5"></path>
                    <path d="M17.8432786,25.7513159 C17.2283824,25.7513159 16.7280736,25.2517407 16.7280736,24.6377461 C16.7280736,24.0237515 17.2283824,23.5241763 17.8432786,23.5241763 C18.4581747,23.5241763 18.9584835,24.0237515 18.9584835,24.6377461 C18.9584835,25.2517407 18.4581747,25.7513159 17.8432786,25.7513159 M17.8432786,22.4106065 C16.6134863,22.4106065 15.6128687,23.409757 15.6128687,24.6377461 C15.6128687,25.8657352 16.6134863,26.8648857 17.8432786,26.8648857 C19.0730708,26.8648857 20.0736884,25.8657352 20.0736884,24.6377461 C20.0736884,23.409757 19.0730708,22.4106065 17.8432786,22.4106065" id="Fill-8"></path>
                    <path d="M26.7649178,2.36634978 L8.92163928,2.36634978 C8.61370332,2.36634978 8.36403682,2.61565022 8.36403682,2.92313469 C8.36403682,3.23061915 8.61370332,3.4799196 8.92163928,3.4799196 L26.7649178,3.4799196 C27.0728538,3.4799196 27.3225203,3.23061915 27.3225203,2.92313469 C27.3225203,2.61565022 27.0728538,2.36634978 26.7649178,2.36634978" id="Fill-10"></path>
                    <path d="M26.7649178,15.7291876 L8.92163928,15.7291876 C8.61370332,15.7291876 8.36403682,15.978488 8.36403682,16.2859725 C8.36403682,16.5934569 8.61370332,16.8427574 8.92163928,16.8427574 L26.7649178,16.8427574 C27.0728538,16.8427574 27.3225203,16.5934569 27.3225203,16.2859725 C27.3225203,15.978488 27.0728538,15.7291876 26.7649178,15.7291876" id="Fill-12"></path>
                    <path d="M26.7649178,17.9563272 L8.92163928,17.9563272 C8.61370332,17.9563272 8.36403682,18.2056276 8.36403682,18.5131121 C8.36403682,18.8205966 8.61370332,19.069897 8.92163928,19.069897 L26.7649178,19.069897 C27.0728538,19.069897 27.3225203,18.8205966 27.3225203,18.5131121 C27.3225203,18.2056276 27.0728538,17.9563272 26.7649178,17.9563272" id="Fill-14"></path>
                    <path d="M12.8248565,20.1834668 L8.92163928,20.1834668 C8.61370332,20.1834668 8.36403682,20.4327673 8.36403682,20.7402517 C8.36403682,21.0477362 8.61370332,21.2970367 8.92163928,21.2970367 L12.8248565,21.2970367 C13.1327924,21.2970367 13.3824589,21.0477362 13.3824589,20.7402517 C13.3824589,20.4327673 13.1327924,20.1834668 12.8248565,20.1834668" id="Fill-16"></path>
                    <path d="M32.8985448,19.069897 C33.2064808,19.069897 33.4561473,18.8205966 33.4561473,18.5131121 L33.4561473,8.49098377 C33.4561473,8.1834993 33.2064808,7.93419886 32.8985448,7.93419886 C32.5906089,7.93419886 32.3409424,8.1834993 32.3409424,8.49098377 L32.3409424,18.5131121 C32.3409424,18.8205966 32.5906089,19.069897 32.8985448,19.069897" id="Fill-18"></path>
                    <path d="M2.78801227,7.93419886 C2.48007632,7.93419886 2.23040982,8.1834993 2.23040982,8.49098377 L2.23040982,18.5131121 C2.23040982,18.8205966 2.48007632,19.069897 2.78801227,19.069897 C3.09594823,19.069897 3.34561473,18.8205966 3.34561473,18.5131121 L3.34561473,8.49098377 C3.34561473,8.1834993 3.09594823,7.93419886 2.78801227,7.93419886" id="Fill-20"></path>
                </g>
            </g>
        </g>
    </g>
</svg>