<?xml version="1.0" encoding="UTF-8"?>
<svg width="31px" height="31px" viewBox="0 0 31 31" version="1.1" xmlns="http://www.w3.org/2000/svg" xmlns:xlink="http://www.w3.org/1999/xlink">
    <!-- Generator: Sketch 45.1 (43504) - http://www.bohemiancoding.com/sketch -->
    <title>globalnav_icon_IRA_53x52</title>
    <desc>Created with Sketch.</desc>
    <defs></defs>
    <g id="Products-V3" stroke="none" stroke-width="1" fill="none" fill-rule="evenodd">
        <g id="All-Products-Overview-v3" transform="translate(-16.000000, -423.000000)" fill="#0F2D52">
            <g id="globalnav_icon_IRA_53x52" transform="translate(16.000000, 423.000000)">
                <path d="M1.07254722,28.8437004 L1.07254722,1.07122206 C1.07254722,0.77902873 0.834859033,0.542167356 0.541645749,0.542167356 L0.530948252,0.542167356 C0.237734968,0.542167356 4.67843635e-05,0.77902873 4.67843635e-05,1.07122206 L4.67843635e-05,29.9124701 C4.67843635e-05,30.2046635 0.237734968,30.4415248 0.530948252,30.4415248 L0.53624606,30.4415248 L1.07254722,30.4415248 L30.4651923,30.4415248 C30.7584056,30.4415248 30.9960937,30.2046635 30.9960937,29.9124701 L30.9960937,29.9018098 C30.9960937,29.6096165 30.7584056,29.3727551 30.4651923,29.3727551 L1.60344868,29.3727551 C1.3102354,29.3727551 1.07254722,29.1358938 1.07254722,28.8437004" id="Fill-1"></path>
                <path d="M6.17689332,28.1432284 L4.76288804,28.1432284 C4.26489411,28.1432284 3.86114003,27.7408788 3.86114003,27.2445156 L3.86114003,24.4991369 C3.86114003,24.0028753 4.26489411,23.6005257 4.76288804,23.6005257 L6.17689332,23.6005257 C6.67498913,23.6005257 7.07874321,24.0028753 7.07874321,24.4991369 L7.07874321,27.2445156 C7.07874321,27.7408788 6.67498913,28.1432284 6.17689332,28.1432284" id="Fill-4"></path>
                <path d="M11.5931478,28.1432284 L10.1792445,28.1432284 C9.68114865,28.1432284 9.27739456,27.7408788 9.27739456,27.2445156 L9.27739456,22.2269734 C9.27739456,21.7306102 9.68114865,21.3282606 10.1792445,21.3282606 L11.5931478,21.3282606 C12.0912437,21.3282606 12.4949977,21.7306102 12.4949977,22.2269734 L12.4949977,27.2445156 C12.4949977,27.7408788 12.0912437,28.1432284 11.5931478,28.1432284" id="Fill-6"></path>
                <path d="M17.0094533,28.1432284 L15.595448,28.1432284 C15.0973522,28.1432284 14.6937,27.7408788 14.6937,27.2445156 L14.6937,18.5914102 C14.6937,18.095047 15.0973522,17.6926974 15.595448,17.6926974 L17.0094533,17.6926974 C17.5075491,17.6926974 17.9113032,18.095047 17.9113032,18.5914102 L17.9113032,27.2445156 C17.9113032,27.7408788 17.5075491,28.1432284 17.0094533,28.1432284" id="Fill-8"></path>
                <path d="M22.4257486,28.1432284 L21.0117433,28.1432284 C20.5136475,28.1432284 20.1099953,27.7408788 20.1099953,27.2445156 L20.1099953,14.5014143 C20.1099953,14.0050511 20.5136475,13.6027015 21.0117433,13.6027015 L22.4257486,13.6027015 C22.9237425,13.6027015 23.3275985,14.0050511 23.3275985,14.5014143 L23.3275985,27.2445156 C23.3275985,27.7408788 22.9237425,28.1432284 22.4257486,28.1432284" id="Fill-10"></path>
                <path d="M27.8419624,28.1432284 L26.4279571,28.1432284 C25.9299632,28.1432284 25.5262091,27.7408788 25.5262091,27.2445156 L25.5262091,10.4114184 C25.5262091,9.91505519 25.9299632,9.51280712 26.4279571,9.51280712 L27.8419624,9.51280712 C28.3400582,9.51280712 28.7438123,9.91505519 28.7438123,10.4114184 L28.7438123,27.2445156 C28.7438123,27.7408788 28.3400582,28.1432284 27.8419624,28.1432284" id="Fill-12"></path>
                <path d="M24.4349218,2.60886153 L19.5593086,5.06133618 C19.3601314,5.16154285 19.3445436,5.43881178 19.5310876,5.56054208 L20.6560567,6.29447731 C20.799505,6.38818629 20.8313937,6.58595995 20.7235018,6.71875664 C14.4134053,14.4886828 5.48731232,18.5171537 5.39388751,18.5585765 L4.70364429,18.864679 C4.55754705,18.9294529 4.49173198,19.100119 4.55673201,19.2458095 L5.17148147,20.6224076 C5.23658338,20.7681997 5.40774332,20.8335828 5.55394244,20.7689104 L6.24469507,20.4625034 C6.64814351,20.2836136 15.885177,16.1231583 22.5167079,7.82194382 C22.609827,7.70528985 22.7761986,7.67767463 22.9012065,7.75930196 L24.1010581,8.54207144 C24.287602,8.66380173 24.5363952,8.53861953 24.5488247,8.31678408 L24.8545693,2.88267856 C24.8671007,2.66084311 24.6338953,2.50875638 24.4349218,2.60886153" id="Fill-14"></path>
                <path d="M8.5561651,10.8263281 L8.5561651,11.8269792 C8.5561651,11.9586664 8.43661381,12.0668571 8.29152571,12.0668571 L7.5574645,12.0668571 C7.41201043,12.0668571 7.29286577,11.9586664 7.29286577,11.8269792 L7.29286577,10.8628419 C6.52895741,10.7934984 5.89988989,10.5499363 5.40529725,10.1315009 C4.96214419,9.7567428 4.72430218,9.22409923 4.69124258,8.53258771 C4.6877455,8.45202803 4.69164922,8.37326948 4.76362398,8.30912466 C4.83555807,8.24489796 5.01443771,8.25431296 5.01443771,8.25431296 L5.88179454,8.25431296 C5.88179454,8.25431296 6.08312055,8.23462333 6.14679991,8.30347565 C6.21084524,8.37421098 6.20303781,8.44027974 6.21283777,8.52599721 C6.25646992,8.91905312 6.40037877,9.20817559 6.64452366,9.39459265 C6.94214132,9.62092114 7.31807727,9.73377838 7.77253484,9.73377838 C8.25696156,9.73377838 8.62809919,9.63070456 8.88761496,9.42365636 C9.14668343,9.21611694 9.27607534,8.93362591 9.27607534,8.57663355 C9.27607534,8.25009668 9.1584759,7.98021357 8.92339902,7.76800758 C8.68710223,7.55432794 8.28449089,7.35763625 7.71515835,7.1772366 C6.81478259,6.91676849 6.13931779,6.58924918 5.68912991,6.1952927 C5.23898269,5.80174557 5.0136651,5.26533599 5.0136651,4.58557276 C5.0136651,3.94510694 5.2283288,3.4199135 5.65729023,3.01093395 C6.06108082,2.62586032 6.6087396,2.38970747 7.29567157,2.29932344 L7.29567157,1.26535142 C7.29567157,1.13460568 7.41440959,1.02690623 7.5602703,1.02690623 L8.29392487,1.02690623 C8.43978558,1.02690623 8.55811696,1.13460568 8.55811696,1.26535142 L8.55811696,2.31242258 C9.23752614,2.41459583 9.77066798,2.67223944 10.1559973,3.08825978 C10.5149764,3.47804091 10.712724,3.97511214 10.7485081,4.58131554 C10.7496467,4.5986719 10.7760374,4.74390856 10.6934088,4.80805338 C10.6231012,4.86290601 10.4701244,4.86196451 10.4701244,4.86196451 L9.50057965,4.86196451 C9.50057965,4.86196451 9.37395287,4.87318064 9.29888767,4.80248625 C9.23829875,4.74575062 9.22731955,4.63612724 9.22609964,4.62351932 C9.18958363,4.28940951 9.07474933,4.01637442 8.88171872,3.80551928 C8.64306344,3.54644295 8.30962106,3.41712993 7.88106627,3.41712993 C7.43047175,3.41712993 7.09747667,3.52163647 6.88045448,3.73056767 C6.66379825,3.93949887 6.55571413,4.22149868 6.55571413,4.57427476 C6.55571413,4.90412735 6.66814927,5.16930296 6.89301956,5.36886009 C7.11833715,5.56890844 7.53509946,5.76989829 8.14212725,5.97322143 C9.04290965,6.23839704 9.71524335,6.56677598 10.1591284,6.95848105 C10.603054,7.34965396 10.8247525,7.88557232 10.8247525,8.5649262 C10.8243866,9.22872486 10.6002482,9.75911702 10.1520529,10.154015 C9.75334524,10.5067911 9.22024407,10.7302951 8.5561651,10.8263281 Z" id="Fill-1"></path>
            </g>
        </g>
    </g>
</svg>