<?xml version="1.0" encoding="UTF-8"?>
<svg width="35px" height="30px" viewBox="0 0 35 30" version="1.1" xmlns="http://www.w3.org/2000/svg" xmlns:xlink="http://www.w3.org/1999/xlink">
    <!-- Generator: Sketch 45.1 (43504) - http://www.bohemiancoding.com/sketch -->
    <title>globalnav_icon_savings_54x46</title>
    <desc>Created with Sketch.</desc>
    <defs></defs>
    <g id="Products-V3" stroke="none" stroke-width="1" fill="none" fill-rule="evenodd">
        <g id="All-Products-Overview-v3" transform="translate(-16.000000, -261.000000)" fill="#0F2D52">
            <g id="globalnav_icon_savings_54x46" transform="translate(16.000000, 261.000000)">
                <g id="Shape">
                    <path d="M12.8617822,9.51683702 C12.5118018,9.51683702 12.1618213,9.25376248 12.0743262,8.90299642 C11.8993359,8.46453885 12.1618213,7.93838976 12.5992969,7.76300673 C14.4366943,7.06147461 16.5365771,6.79840007 18.7239551,6.79840007 C20.4738574,6.79840007 22.1362646,7.06147461 23.7111768,7.41224067 C24.1486523,7.49993218 24.4111377,8.02608127 24.3236426,8.46453885 C24.2361475,8.90299642 23.7111768,9.16607096 23.2737012,9.07837945 C21.8737793,8.72761339 20.2988672,8.46453885 18.8114502,8.46453885 C16.7990625,8.46453885 14.961665,8.72761339 13.2992578,9.34145399 C13.0367725,9.51683702 12.9492773,9.51683702 12.8617822,9.51683702 L12.8617822,9.51683702 Z"></path>
                    <path d="M29.5733496,29.5520405 L27.2984766,29.5520405 C25.9860498,29.5520405 25.0236035,28.4997423 25.0236035,27.2720611 L25.0236035,25.0797732 C21.1738184,26.2197629 16.7115674,26.3074544 12.8617822,25.2551562 L12.8617822,27.1843696 C12.8617822,28.4997423 11.8118408,29.464349 10.5869092,29.464349 L8.22454102,29.464349 C6.91211426,29.464349 5.94966797,28.4120508 5.94966797,27.1843696 L5.94966797,21.4844211 C5.42469727,20.958272 4.89972656,20.4321229 4.46225098,19.9059738 L2.27487305,19.9059738 C1.04994141,19.9059738 0,18.8536757 0,17.6259945 L0,12.7152696 C0,11.5752799 1.04994141,10.5229818 2.27487305,10.5229818 L3.14982422,10.5229818 C3.67479492,9.38299208 4.46225098,8.24300239 5.42469727,7.27839572 C5.68718262,5.52456543 4.98722168,3.94611816 3.32481445,2.27997938 C3.0623291,2.10459635 2.97483398,1.7538303 3.0623291,1.49075575 C3.14982422,1.22768121 3.41230957,0.964606662 3.67479492,0.876915148 C7.26209473,-0.0876915148 10.1494336,0.789223633 12.2493164,3.33227756 C14.2617041,2.71843696 16.449082,2.3676709 18.63646,2.3676709 C27.648457,2.3676709 34.9980469,7.62916178 34.9980469,14.1183339 C34.9980469,16.5736963 33.8606104,19.0290587 31.9357178,21.0459635 L31.9357178,27.1843696 C31.9357178,28.4997423 30.8857764,29.5520405 29.5733496,29.5520405 L29.5733496,29.5520405 Z M25.8985547,22.8874854 C26.0735449,22.8874854 26.2485352,22.9751769 26.4235254,23.0628684 C26.6860107,23.2382514 26.7735059,23.501326 26.7735059,23.7644005 L26.7735059,27.1843696 C26.7735059,27.5351356 27.0359912,27.7105187 27.2984766,27.7105187 L29.5733496,27.7105187 C29.9233301,27.7105187 30.0983203,27.4474441 30.0983203,27.1843696 L30.0983203,20.6951975 C30.0983203,20.4321229 30.1858154,20.2567399 30.3608057,20.0813569 C32.1982031,18.3275266 33.1606494,16.3106217 33.1606494,14.2060254 C33.1606494,8.68145996 26.5985156,4.20919271 18.5489648,4.20919271 C16.2740918,4.20919271 14.0867139,4.55995877 12.0743262,5.26149089 C11.7243457,5.3491824 11.2868701,5.26149089 11.1118799,4.91072483 C9.71195801,2.89381999 7.87456055,2.10459635 5.51219238,2.3676709 C6.91211426,4.12150119 7.43708496,5.963023 7.08710449,7.89223633 C7.08710449,8.06761936 6.99960938,8.24300239 6.82461914,8.3306939 C5.77467773,9.29530056 4.98722168,10.4352903 4.54974609,11.6629715 C4.37475586,12.101429 4.02477539,12.2768121 3.67479492,12.2768121 L2.27487305,12.2768121 C2.0123877,12.2768121 1.74990234,12.5398866 1.74990234,12.8029612 L1.74990234,17.713686 C1.74990234,17.9767605 2.0123877,18.2398351 2.27487305,18.2398351 L4.89972656,18.2398351 C5.16221191,18.2398351 5.42469727,18.4152181 5.5996875,18.5906011 C6.03716309,19.2921332 6.64962891,19.9059738 7.34958984,20.4321229 C7.52458008,20.607506 7.69957031,20.8705805 7.69957031,21.1336551 L7.69957031,27.1843696 C7.69957031,27.5351356 7.96205566,27.7105187 8.22454102,27.7105187 L10.4994141,27.7105187 C10.8493945,27.7105187 11.0243848,27.4474441 11.0243848,27.1843696 L11.0243848,23.9397835 C11.0243848,23.676709 11.199375,23.4136344 11.3743652,23.2382514 C11.6368506,23.0628684 11.8993359,23.0628684 12.1618213,23.1505599 C14.174209,23.852092 16.3615869,24.2028581 18.63646,24.2028581 C21.0863232,24.2028581 23.4486914,23.7644005 25.5485742,22.9751769 C25.7235645,22.8874854 25.8110596,22.8874854 25.8985547,22.8874854 L25.8985547,22.8874854 Z"></path>
                </g>
            </g>
        </g>
    </g>
</svg>