<?xml version="1.0" encoding="UTF-8"?>
<svg width="28px" height="38px" viewBox="0 0 28 38" version="1.1" xmlns="http://www.w3.org/2000/svg" xmlns:xlink="http://www.w3.org/1999/xlink">
    <!-- Generator: Sketch 45.1 (43504) - http://www.bohemiancoding.com/sketch -->
    <title>globalnav_icon_personal-loans_43x57</title>
    <desc>Created with Sketch.</desc>
    <defs></defs>
    <g id="Products-V3" stroke="none" stroke-width="1" fill="none" fill-rule="evenodd">
        <g id="All-Products-Overview-v3" transform="translate(-16.000000, -829.000000)" fill="#0F2D52">
            <g id="globalnav_icon_personal-loans_43x57" transform="translate(16.000000, 829.000000)">
                <path d="M13.0358722,13.3931711 L13.0358722,14.4204141 C13.0358722,14.5556009 12.9155979,14.6666667 12.7696325,14.6666667 L12.0311323,14.6666667 C11.8847987,14.6666667 11.7649335,14.5556009 11.7649335,14.4204141 L11.7649335,13.4306553 C10.9964057,13.3594689 10.3635341,13.1094343 9.86595063,12.6798791 C9.42011777,12.295162 9.1808375,11.7483636 9.14757799,11.0384754 C9.14405977,10.9557749 9.14798709,10.8749234 9.22039709,10.8090739 C9.29276618,10.7431404 9.47272752,10.7528056 9.47272752,10.7528056 L10.3453294,10.7528056 C10.3453294,10.7528056 10.5478728,10.7325927 10.6119373,10.8032748 C10.6763699,10.8758899 10.6685152,10.9437144 10.6783744,11.0317098 C10.7222705,11.435211 10.8670495,11.7320168 11.1126708,11.9233878 C11.4120882,12.1557309 11.7902975,12.2715873 12.2475032,12.2715873 C12.7348593,12.2715873 13.1082413,12.1657743 13.3693263,11.9532239 C13.6299614,11.7401692 13.7601358,11.4501711 13.7601358,11.0836918 C13.7601358,10.7484773 13.6418252,10.4714221 13.4053268,10.2535769 C13.1676011,10.0342188 12.7625551,9.83230007 12.1897797,9.64710637 C11.2839593,9.37971642 10.6044099,9.04349341 10.1514997,8.63906769 C9.69863035,8.23506219 9.47195024,7.68439774 9.47195024,6.98657006 C9.47195024,6.3290841 9.68791204,5.78993385 10.1194674,5.37008583 C10.5256998,4.97477901 11.0766703,4.7323505 11.7677563,4.63956455 L11.7677563,3.57811511 C11.7677563,3.44389485 11.8872123,3.33333333 12.0339551,3.33333333 L12.7720461,3.33333333 C12.9187889,3.33333333 13.0378358,3.44389485 13.0378358,3.57811511 L13.0378358,4.65301179 C13.7213535,4.75790025 14.2577193,5.02239064 14.6453787,5.44946656 C15.0065287,5.84960598 15.2054721,6.35988669 15.2414725,6.98219971 C15.242618,7.0000173 15.2691683,7.14911357 15.18604,7.21496302 C15.1153073,7.27127333 14.9614054,7.27030681 14.9614054,7.27030681 L13.9859977,7.27030681 C13.9859977,7.27030681 13.8586052,7.28182101 13.7830861,7.20924794 C13.7221308,7.15100459 13.7110852,7.038468 13.7098579,7.02552504 C13.6731211,6.68253639 13.5575923,6.40224549 13.3633945,6.18578696 C13.123296,5.91982578 12.7878372,5.78707631 12.3566909,5.78707631 C11.9033716,5.78707631 11.5683629,5.89436007 11.3500283,6.10884354 C11.1320619,6.32332701 11.0233242,6.61282086 11.0233242,6.97497182 C11.0233242,7.31359012 11.1364393,7.58581267 11.3626694,7.79067296 C11.5893495,7.99603751 12.008632,8.20236859 12.6193306,8.41109496 C13.5255601,8.68331751 14.2019595,9.02042299 14.6485287,9.42253747 C15.0951389,9.82410566 15.318178,10.3742658 15.318178,11.0716733 C15.3178098,11.7531121 15.0923161,12.2975993 14.6414105,12.7029915 C14.2402918,13.0651425 13.7039669,13.294586 13.0358722,13.3931711 Z" id="Fill-1"></path>
                <path d="M2.41935582,29.082809 L2.41935582,29.082809 L2.41935582,31.5040055 L2.41935582,36.8652261 C2.41935582,37.2111113 2.13567118,37.499349 1.79524962,37.499349 L0.91582723,37.499349 C0.575405661,37.499349 0.29172102,37.2111113 0.29172102,36.8652261 L0.29172102,28.8810427 C0.29172102,28.5351575 0.575405661,28.2469198 0.91582723,28.2469198 L1.79524962,28.2469198 C2.13567118,28.2469198 2.41935582,28.5351575 2.41935582,28.8810427 L2.41935582,29.082809 Z" id="Shape" fill-rule="nonzero"></path>
                <path d="M27.6640561,28.7254244 C27.6073192,28.8695432 27.5222138,29.0424858 27.352003,29.1001334 L17.9336729,34.4325302 C17.6783568,34.5766491 17.3663037,34.7207679 16.9124082,34.8072392 C15.7209327,35.1531244 14.3876149,35.1819482 13.0826656,34.8937105 L10.0756084,34.2019401 C9.53660758,34.086645 8.5720798,33.97135 7.23876199,33.8848787 C5.93381265,33.7984073 4.60049484,34.1731163 3.55086167,34.9801818 L2.61470235,35.7295997 L2.61470235,31.2330921 L2.61470235,28.9848383 C2.78491314,28.898367 3.01186085,28.7254244 3.26717702,28.6101293 C4.2317048,28.033654 5.70686493,27.1401172 6.52955039,26.9095271 C6.89834042,26.794232 7.35223585,26.7365845 7.83449974,26.6789369 C8.85576444,26.6212894 9.84866069,26.7654082 10.8982939,27.1401172 C12.4301909,27.658945 14.4159834,28.2930679 15.2954058,28.2930679 L18.3591999,28.2930679 L18.3591999,28.2930679 C18.9833061,28.2930679 19.4939385,28.7830719 19.4939385,29.4460186 L19.4939385,29.4460186 C19.4939385,29.76308 19.3804646,30.0224939 19.1535169,30.253084 C18.9265692,30.4260266 18.671253,30.5701455 18.3591999,30.5701455 L12.4585594,30.5701455 C12.2883486,30.5701455 12.1465063,30.6854405 12.1465063,30.8872069 C12.1465063,31.0313257 12.2599801,31.2042683 12.4585594,31.2042683 L18.3875684,31.2042683 C18.8414638,31.2042683 19.2669908,31.0313257 19.6074123,30.6854405 C19.891097,30.3972029 20.0613077,30.0224939 20.0896762,29.6477849 L24.600262,27.6877688 C25.0825259,27.4571786 25.5647898,27.3707073 26.0470537,27.3707073 C26.8130022,27.3707073 27.2952661,27.658945 27.6073192,28.2065966 C27.6924246,28.3795392 27.720793,28.5813055 27.6640561,28.7254244 Z" id="Shape" fill-rule="nonzero"></path>
                <path d="M6.21618506,0.28394501 C5.81193993,0.32750261 5.47181949,0.717874114 5.47400116,1.13578856 L5.47400116,24.9874165 C5.4740564,25.4334417 5.86871872,25.8392032 6.30248551,25.83926 L22.8721729,25.83926 C23.3059397,25.8392032 23.700602,25.4334417 23.7006573,24.9874165 L23.7006573,5.11105846 C23.7006573,4.88784705 23.612258,4.66577144 23.459016,4.50766928 L19.5927552,0.532399379 C19.4389885,0.374836717 19.2230026,0.283405509 19.0059121,0.28394501 L6.21618506,0.28394501 L6.21618506,0.28394501 Z M7.13096985,1.98763211 L18.1774278,1.98763211 L18.1774278,5.11105846 C18.177483,5.55705534 18.5721177,5.96284522 19.0059121,5.96290201 L22.0436886,5.96290201 L22.0436886,24.1355729 L7.13096985,24.1355729 L7.13096985,1.98763211 L7.13096985,1.98763211 Z M19.834397,3.1855229 L20.8786187,4.25921491 L19.834397,4.25921491 L19.834397,3.1855229 Z M17.5962941,8.9506093 C17.0685275,8.9506093 16.6406568,9.33200805 16.6406568,9.80245285 C16.6406568,10.2728976 17.0685275,10.6542964 17.5962941,10.6542964 L20.144661,10.6542964 C20.6724594,10.6542964 21.1002983,10.2728976 21.1002983,9.80245285 C21.1002983,9.33200805 20.6724594,8.9506093 20.144661,8.9506093 L17.5962941,8.9506093 Z M17.5962941,12.2839426 C17.0685275,12.2839426 16.6406568,12.6653414 16.6406568,13.1357862 C16.6406568,13.606231 17.0685275,13.9876297 17.5962941,13.9876297 L20.144661,13.9876297 C20.6724594,13.9876297 21.1002983,13.606231 21.1002983,13.1357862 C21.1002983,12.6653414 20.6724594,12.2839426 20.144661,12.2839426 L17.5962941,12.2839426 Z M9.06409999,16.7706756 C8.60652808,16.7706756 8.23561564,17.1520743 8.23561564,17.6225191 C8.23561564,18.0929639 8.60652808,18.4743627 9.06409999,18.4743627 L20.1105584,18.4743627 C20.5681304,18.4743627 20.9390428,18.0929639 20.9390428,17.6225191 C20.9390428,17.1520743 20.5681304,16.7706756 20.1105584,16.7706756 L9.06409999,16.7706756 Z M9.06409999,20.7459455 C8.60652808,20.7459455 8.23561564,21.1273158 8.23561564,21.597789 C8.23561564,22.0682338 8.60652808,22.4496326 9.06409999,22.4496326 L20.1105584,22.4496326 C20.5681304,22.4496326 20.9390428,22.0682338 20.9390428,21.597789 C20.9390428,21.1273158 20.5681304,20.7459455 20.1105584,20.7459455 L9.06409999,20.7459455 Z" id="Shape" fill-rule="nonzero"></path>
            </g>
        </g>
    </g>
</svg>