<?xml version="1.0" encoding="UTF-8"?>
<svg width="30px" height="31px" viewBox="0 0 30 31" version="1.1" xmlns="http://www.w3.org/2000/svg" xmlns:xlink="http://www.w3.org/1999/xlink">
    <!-- Generator: Sketch 45.1 (43504) - http://www.bohemiancoding.com/sketch -->
    <title>globalnav_icon_adventure_52x51</title>
    <desc>Created with Sketch.</desc>
    <defs>
        <polygon id="path-1" points="0.436228463 21.6064447 0.436228463 30.2556827 27.6639543 30.2556827 27.6639543 21.6064447 0.436228463 21.6064447"></polygon>
        <polygon id="path-3" points="8.31342538 20.5739054 29.4016825 20.5739054 29.4016825 10.3123675 8.31342538 10.3123675 8.31342538 20.5739054"></polygon>
        <polygon id="path-5" points="1.15389091 0 19.9841299 0 19.9841299 10.2869527 1.15389091 10.2869527 1.15389091 0"></polygon>
    </defs>
    <g id="Products-V3" stroke="none" stroke-width="1" fill="none" fill-rule="evenodd">
        <g id="All-Products-Overview-v3" transform="translate(-16.000000, -912.000000)">
            <g id="globalnav_icon_adventure_52x51" transform="translate(16.000000, 912.000000)">
                <path d="M0.145988808,30.8608581 L29.6913429,30.8608581 L29.6913429,0 L0.145988808,0 L0.145988808,30.8608581 Z M0.725309476,30.2563483 L29.1126015,30.2563483 L29.1126015,0.605114865 L0.725309476,0.605114865 L0.725309476,30.2563483 Z" id="Fill-1" fill="#0F2D52"></path>
                <mask id="mask-2" fill="white">
                    <use xlink:href="#path-1"></use>
                </mask>
                <g id="Clip-3"></g>
                <path d="M8.67306765,24.9379333 C8.67306765,24.9379333 9.8403988,24.3957504 12.5915927,24.4247959 L12.848811,24.4193499 C13.9628447,24.6293247 15.2483572,25.2792181 16.7823984,25.8504465 C15.1904252,25.7984066 12.895736,25.6761734 9.64053317,25.4135536 L8.67306765,24.9379333 Z M13.2450664,23.382183 L7.61870404,23.382183 C7.1384472,23.097779 6.73292274,22.7855397 6.20284432,22.47088 C8.57458314,22.0515354 11.4091992,22.118098 11.5030491,22.0460894 C11.6032716,21.97045 10.9318389,21.6757591 10.7325526,21.6570005 C9.0108116,21.4930144 2.76110024,21.7804439 2.76110024,21.7804439 C2.57571762,21.7780235 2.7321342,21.9238561 2.7321342,21.9238561 C2.7321342,21.9238561 2.84104649,22.0418535 2.90361312,22.1029701 C2.95053809,22.1501691 3.04207076,22.1507742 3.04207076,22.1507742 C3.32419993,22.1507742 3.70597225,22.1895016 4.08716524,22.2415415 L6.42993803,24.1434175 L0.360974708,24.3431054 C0.360974708,24.3431054 0.122873914,24.2759376 -0.0833642441,24.5427933 L-0.401411291,24.8750013 L3.91974157,25.2743772 L2.93489644,27.0189233 L0.837755618,27.0189233 C0.837755618,27.0189233 0.202240845,26.9717243 -0.0196389706,27.2379749 C-0.242677428,27.5042254 -2.1480631,29.60942 -2.1480631,29.60942 L-3.9781371,29.60942 C-4.02100682,29.60942 -4.05518674,29.6457269 -4.05518674,29.6905054 L-4.05518674,30.1752024 C-4.05518674,30.2199809 -4.02100682,30.2556827 -3.9781371,30.2556827 L-2.33923893,30.2556827 L22.897128,30.2556827 C26.326127,28.3943494 27.4140913,27.1447872 27.6127983,26.938443 C27.823671,26.7187863 27.3144481,26.7199966 27.3144481,26.7199966 L25.1755962,26.5675076 L20.0601947,26.1064101 C20.0323873,26.0949129 20.0051592,26.0840208 19.9773518,26.0725237 C19.8678602,26.0277452 19.7595273,25.984782 19.6511943,25.9418189 L13.2450664,23.382183 Z" id="Fill-2" fill="#0F2D52" mask="url(#mask-2)"></path>
                <mask id="mask-4" fill="white">
                    <use xlink:href="#path-3"></use>
                </mask>
                <g id="Clip-6"></g>
                <path d="M23.7192999,21.1790203 C23.0449706,21.1790203 22.4980919,20.5993202 22.4980919,19.8846796 C22.4980919,19.1700389 23.0449706,18.590944 23.7192999,18.590944 C24.3947878,18.590944 24.9410872,19.1700389 24.9410872,19.8846796 C24.9410872,20.5993202 24.3947878,21.1790203 23.7192999,21.1790203 L23.7192999,21.1790203 Z M24.4307057,19.8846796 C24.4307057,19.4689657 24.1120793,19.1319167 23.7192999,19.1319167 C23.3270998,19.1319167 23.0084734,19.4689657 23.0084734,19.8846796 C23.0084734,20.3009986 23.3270998,20.6380476 23.7192999,20.6380476 C24.1120793,20.6380476 24.4307057,20.3009986 24.4307057,19.8846796 L24.4307057,19.8846796 Z M11.9376555,19.8846796 C11.9376555,20.5993202 11.3907768,21.1790203 10.7158682,21.1790203 C10.0415389,21.1790203 9.4940809,20.5993202 9.4940809,19.8846796 C9.4940809,19.1700389 10.0415389,18.590944 10.7158682,18.590944 C11.3907768,18.590944 11.9376555,19.1700389 11.9376555,19.8846796 L11.9376555,19.8846796 Z M10.7158682,20.6380476 C11.1086476,20.6380476 11.427274,20.3009986 11.427274,19.8846796 C11.427274,19.4689657 11.1086476,19.1319167 10.7158682,19.1319167 C10.3230888,19.1319167 10.0050417,19.4689657 10.0050417,19.8846796 C10.0050417,20.3009986 10.3230888,20.6380476 10.7158682,20.6380476 L10.7158682,20.6380476 Z M8.62625854,17.1907082 C8.62625854,16.8814945 8.89738062,16.8814945 8.89738062,16.8814945 L11.2789679,16.2461239 L13.4942901,13.8988833 L10.2240249,13.8988833 C9.59024813,13.8988833 9.98650347,13.3409674 9.98650347,13.3409674 C9.98650347,13.3409674 11.2262497,11.5510377 11.4637712,11.215804 C11.7007133,10.8805704 12.1033412,10.8805704 12.1033412,10.8805704 L16.0230248,10.8805704 C16.2559117,10.3638023 16.9655796,10.3123675 16.9655796,10.3123675 L18.8599581,10.3123675 L18.8599581,10.8805704 L30.9121453,10.8805704 C31.0378579,10.8805704 31.1398183,10.9888859 31.1398183,11.1220112 L31.1398183,19.0683796 L28.3440168,19.7388469 L25.3356046,19.7388469 L25.1670223,19.2741187 C25.1670223,19.2741187 24.7771394,18.3349804 24.2870342,18.3349804 L23.1631521,18.3349804 C22.6730468,18.3349804 22.283164,19.2741187 22.283164,19.2741187 L22.115161,19.7388469 L22.0722912,19.7388469 L12.2811926,19.7388469 L11.7800803,18.5933644 C11.7800803,18.5933644 11.5425588,17.9785677 10.9887282,17.9785677 L10.1452373,17.9785677 C10.1452373,17.9785677 9.22180019,18.090514 9.22180019,19.5433948 L8.69403906,19.5433948 L8.31342538,19.3769882 L8.31342538,18.6042565 L8.62625854,18.4499522 L8.62625854,17.1907082 Z M12.6195159,16.4615448 L14.6529315,16.4615448 C14.778644,16.4615448 14.8806045,16.3532292 14.8806045,16.2201039 L14.8806045,14.7151833 C14.8806045,14.582058 14.778644,14.4737424 14.6529315,14.4737424 L13.7190665,14.4737424 C13.6541826,14.4737424 13.4769105,14.4822141 13.2839967,14.692794 C13.1466977,14.8434676 12.6131434,15.4497927 12.6131434,15.4497927 L12.6131434,16.4560987 L12.6195159,16.4615448 Z M16.7141544,15.0479965 L21.3238089,15.0479965 C21.4495215,15.0479965 21.551482,14.9396809 21.551482,14.8065556 L21.551482,13.0365946 C21.551482,12.9034694 21.4495215,12.7957589 21.3238089,12.7957589 L16.7141544,12.7957589 C16.5878625,12.7957589 16.485902,12.9034694 16.485902,13.0365946 L16.485902,14.8065556 C16.485902,14.9396809 16.5878625,15.0479965 16.7141544,15.0479965 L16.7141544,15.0479965 Z M14.0487,11.7470949 L13.132794,11.7470949 C13.0215645,11.7470949 12.7938914,11.7470949 12.6461647,11.9607004 L12.3935808,12.3346614 C12.2869858,12.4932015 12.1323072,12.680182 12.1693837,12.7891027 C12.1856047,12.8550602 12.2377436,12.8816852 12.3495525,12.8816852 L14.0487,12.8816852 C14.1605089,12.8816852 14.2508829,12.785472 14.2508829,12.6674746 L14.2508829,11.9607004 C14.2508829,11.842703 14.1605089,11.7470949 14.0487,11.7470949 L14.0487,11.7470949 Z M23.1312894,15.0479965 L25.287521,15.0479965 C25.4132335,15.0479965 25.515194,14.9396809 25.515194,14.8065556 L25.515194,13.0365946 C25.515194,12.9034694 25.4132335,12.7957589 25.287521,12.7957589 L23.1312894,12.7957589 C23.0055768,12.7957589 22.9030371,12.9034694 22.9030371,13.0365946 L22.9030371,14.8065556 C22.9030371,14.9396809 23.0055768,15.0479965 23.1312894,15.0479965 L23.1312894,15.0479965 Z" id="Fill-5" fill="#0F2D52" mask="url(#mask-4)"></path>
                <mask id="mask-6" fill="white">
                    <use xlink:href="#path-5"></use>
                </mask>
                <g id="Clip-9"></g>
                <path d="M17.019746,10.151649 C15.802014,10.151649 14.8148516,9.10661564 14.8148516,7.81772098 C14.8148516,7.0776655 15.1468023,6.42595679 15.6548665,5.99814058 L16.4328942,7.55086533 C16.4328942,7.55086533 16.3778587,7.71122077 16.4467979,7.88670408 L16.5076266,7.981102 C16.5076266,7.981102 16.5197923,7.97565596 16.5371719,7.9689997 C16.5997386,8.1928922 16.7880178,8.35929879 17.019746,8.35929879 C17.3024545,8.35929879 17.5312862,8.11664773 17.5312862,7.81772098 C17.5312862,7.51818912 17.3024545,7.27614318 17.019746,7.27614318 C16.9728211,7.27614318 16.93111,7.29187616 16.8882402,7.30397846 C16.7520999,7.00323637 16.4155146,6.27346785 16.1397579,5.67985017 C16.4097214,5.5551965 16.7063336,5.48439806 17.019746,5.48439806 C18.2374781,5.48439806 19.2246405,6.52882632 19.2246405,7.81772098 C19.2246405,9.10661564 18.2374781,10.151649 17.019746,10.151649 M4.05976338,9.89810589 C3.00713772,9.89810589 2.15321906,8.99406428 2.15321906,7.8794427 C2.15321906,6.764216 3.00713772,5.86077951 4.05976338,5.86077951 C4.88181941,5.86077951 5.57584557,6.4138545 5.84407103,7.18477083 L4.43632181,7.51879424 C4.34305118,7.40926845 4.21096607,7.33786489 4.05976338,7.33786489 C3.77763421,7.33786489 3.54880255,7.57991084 3.54880255,7.8794427 C3.54880255,8.17836944 3.77763421,8.4210205 4.05976338,8.4210205 C4.24804259,8.4210205 4.40561782,8.30846914 4.49425388,8.1481137 L5.64304676,7.98775826 L5.96456973,7.90425241 C5.952404,9.00737681 5.10543718,9.89810589 4.05976338,9.89810589 M17.019746,4.67959529 C16.5852555,4.67959529 16.1762551,4.78367505 15.8043313,4.96097371 C15.7631995,4.87323205 15.7353921,4.81635125 15.7307576,4.80908988 C15.697157,4.75583977 15.5720237,4.84418654 15.5720237,4.84418654 L14.6792905,2.93565425 C14.6792905,2.93565425 15.4555802,2.54717051 16.5852555,2.61312803 C17.3238894,2.65548607 18.3516043,3.36044489 18.4170675,3.41611546 C18.4825307,3.47118091 18.7443837,3.58917831 18.7183142,3.53350774 C18.6458992,3.38101879 17.7496901,2.41888616 17.1414034,2.1762351 C16.5325374,1.93358404 14.961999,2.09999063 14.961999,2.09999063 C14.7007254,1.08884369 13.7124043,0.0153699176 13.6341961,-0.0469569135 C13.5554084,-0.109283745 13.4047851,-0.226676028 13.4047851,-0.226676028 L13.4047851,-0.427574163 C13.4047851,-0.489900994 13.3595981,-0.524997657 13.3595981,-0.524997657 L12.9401699,-0.53165392 C12.6198056,-0.746469697 12.4825066,-0.4209179 12.4825066,-0.4209179 C12.3249313,-0.427574163 12.2530956,-0.247855049 12.2530956,-0.247855049 L12.0503334,-0.233937407 C11.9327313,-0.137119028 12.0572852,-0.00520398784 12.0572852,-0.00520398784 L12.26642,0.0153699176 C12.403719,0.257415863 12.6331299,0.105532032 12.6331299,0.105532032 C12.6331299,0.105532032 12.750732,0.118844559 12.8098227,0.222924316 C12.8683341,0.327004073 13.0513995,0.610802944 13.0513995,0.610802944 C12.9598668,0.659212134 12.9795637,0.728800343 12.9795637,0.728800343 C12.8810792,0.770553269 12.8944036,0.881289289 12.8944036,0.881289289 L12.9998399,1.15117052 C12.9928881,1.28974182 12.5346454,1.73329102 12.5346454,1.73329102 C12.5022035,1.55296679 12.2403505,1.44223077 12.2403505,1.44223077 L11.7821079,1.5251315 C11.7432934,1.56022817 11.729969,1.64978517 11.729969,1.64978517 L11.6094703,1.71271711 C11.6094703,1.71271711 11.5677592,1.50758317 11.3881698,1.62497546 C11.2085804,1.74176263 10.6281011,2.04916098 9.92306786,2.21012153 C8.56282293,2.52054546 5.49995456,1.75628538 5.30646145,1.74176263 C5.11296835,1.72723987 5.18190751,1.85915491 5.18190751,1.85915491 C5.18190751,1.85915491 2.4179686,1.56627932 2.2244755,1.58080207 C2.0309824,1.59592994 2.25170357,1.96141932 2.25170357,1.96141932 C2.25170357,1.96141932 1.51944225,2.28334043 1.29814175,2.44430098 C1.07684126,2.60526154 1.36708091,2.59073878 1.36708091,2.59073878 C2.45910037,1.90272318 3.74461293,1.97594208 4.06265998,2.06368373 C4.38070703,2.15142539 4.7949213,2.44430098 4.7949213,2.44430098 L4.31176787,2.44430098 C4.31176787,2.44430098 4.11769544,2.34203657 3.89697427,2.23916705 C3.67567377,2.13690263 3.34430235,2.22464429 3.21974841,2.28334043 C3.09519446,2.34203657 3.01235161,2.37108209 3.0540627,2.59073878 C3.11720865,2.9253673 3.28868757,3.05849257 3.28868757,3.05849257 C3.28868757,3.05849257 5.6245085,4.66809811 6.12214496,4.94584583 C6.61978141,5.22419867 7.0484787,5.18002529 7.0484787,5.18002529 C7.0484787,5.18002529 7.26919988,5.34098584 7.49050037,5.48742364 C7.98350226,5.81358055 8.26447279,5.73612585 8.26447279,5.73612585 L8.56861614,6.01447869 C8.52690505,6.16031137 8.58251983,6.43866421 8.58251983,6.43866421 L7.75293264,6.6583209 C7.68399348,6.35092255 7.2558755,6.40901358 7.2558755,6.40901358 L6.66670638,6.54213885 C6.19513936,5.51586404 5.21029422,4.80243361 4.05976338,4.80243361 C2.45446581,4.80243361 1.15389091,6.18028016 1.15389091,7.8794427 C1.15389091,9.57860524 2.45446581,10.9564518 4.05976338,10.9564518 C5.66506095,10.9564518 6.96621517,9.57860524 6.96621517,7.8794427 C6.96621517,7.80017265 6.94999419,7.72634864 6.94420098,7.64889393 L8.72792932,7.18416572 C8.79281323,7.34028535 8.9347468,7.65676043 9.0384452,7.71122077 C9.17690284,7.78443966 9.50885358,7.76991691 9.50885358,7.76991691 C9.50885358,7.76991691 9.89526047,7.95992298 10.5730656,7.90183195 C11.2502915,7.84313581 11.8858063,7.5944336 12.1621422,6.68736642 C12.1621422,6.68736642 12.369539,6.93606862 12.5491284,6.78963083 C12.7287179,6.64319303 12.7287179,6.21900751 12.5213211,5.82447262 L12.8254644,5.20967592 C12.8254644,5.20967592 13.1296078,5.28289481 13.2124506,5.09228363 C13.2952935,4.90227756 13.6411479,4.18521645 13.6411479,4.18521645 L14.2911457,3.57102486 L15.2348591,5.32646308 C14.5222946,5.89950686 14.0547829,6.79749732 14.0547829,7.81772098 C14.0547829,9.55076995 15.3825858,10.9564518 17.019746,10.9564518 C18.6569062,10.9564518 19.9841299,9.55076995 19.9841299,7.81772098 C19.9841299,6.08467201 18.6569062,4.67959529 17.019746,4.67959529" id="Fill-8" fill="#0F2D52" mask="url(#mask-6)"></path>
                <path d="M0.725309476,20.3760328 L29.1120222,20.3760328 L29.1120222,10.4842201 L0.725309476,10.4842201 L0.725309476,20.3760328 Z M0.145988808,20.9811477 L29.6913429,20.9811477 L29.6913429,9.87910528 L0.145988808,9.87910528 L0.145988808,20.9811477 Z" id="Fill-11" fill="#0F2D52" mask="url(#mask-6)"></path>
            </g>
        </g>
    </g>
</svg>