<?xml version="1.0" encoding="UTF-8"?>
<svg width="129px" height="34px" viewBox="0 0 129 34" version="1.1" xmlns="http://www.w3.org/2000/svg" xmlns:xlink="http://www.w3.org/1999/xlink">
    <defs>
        <polygon id="path-1" points="0 32.7458401 128.944362 32.7458401 128.944362 0 0 0"></polygon>
    </defs>
    <g id="Symbols" stroke="none" stroke-width="1" fill="none" fill-rule="evenodd">
        <g id="Header/-Login" transform="translate(-123.000000, -32.000000)">
            <g id="AppHeader/-Tabbed/-2">
                <g id="Icons/-PenFed-Logo" transform="translate(123.000000, 32.000000)">
                    <g id="PENFED-LOGO" transform="translate(0.000000, 0.501953)">
                        <g id="Page-1">
                            <path d="M45.1990175,13.3231151 C46.7431175,13.3231151 47.6455534,12.4010231 47.6455534,11.1976298 L47.6455534,11.1574438 C47.6455534,9.77365068 46.6828387,9.03152172 45.1387387,9.03152172 L42.7520449,9.03152172 L42.7520449,13.3231151 L45.1990175,13.3231151 L45.1990175,13.3231151 Z M39.6638449,6.24427925 L45.3995103,6.24427925 C48.7484819,6.24427925 50.7739393,8.22955068 50.7739393,11.097165 L50.7739393,11.1377877 C50.7739393,14.3862945 48.2474684,16.0710452 45.0985528,16.0710452 L42.7520449,16.0710452 L42.7520449,20.2813932 L39.6638449,20.2813932 L39.6638449,6.24427925 L39.6638449,6.24427925 Z" id="Fill-1" fill="#0F2D52"></path>
                            <polygon id="Fill-3" fill="#0F2D52" points="53.7618929 6.24406085 64.350444 6.24406085 64.350444 8.99199101 56.8304367 8.99199101 56.8304367 11.8390755 63.4480082 11.8390755 63.4480082 14.5861321 56.8304367 14.5861321 56.8304367 17.534555 64.450472 17.534555 64.450472 20.2816116 53.7618929 20.2816116"></polygon>
                            <polygon id="Fill-5" fill="#0F2D52" points="68.1306716 6.24406085 70.9781929 6.24406085 77.5560153 14.8870896 77.5560153 6.24406085 80.6044662 6.24406085 80.6044662 20.2816116 77.9766569 20.2816116 71.1791225 11.3577182 71.1791225 20.2816116 68.1306716 20.2816116"></polygon>
                            <polygon id="Fill-7" fill="#00A0DD" points="84.8381831 6.24406085 95.5267621 6.24406085 95.5267621 9.05183307 87.9259463 9.05183307 87.9259463 12.0395683 94.6243263 12.0395683 94.6243263 14.8473405 87.9259463 14.8473405 87.9259463 20.2816116 84.8381831 20.2816116"></polygon>
                            <polygon id="Fill-9" fill="#00A0DD" points="98.6551044 6.24406085 109.243655 6.24406085 109.243655 8.99199101 101.723648 8.99199101 101.723648 11.8390755 108.34122 11.8390755 108.34122 14.5861321 101.723648 14.5861321 101.723648 17.534555 109.343683 17.534555 109.343683 20.2816116 98.6551044 20.2816116"></polygon>
                            <path d="M116.112083,9.03152172 L116.112083,17.4945875 L118.49834,17.4945875 C121.025248,17.4945875 122.729655,15.7901806 122.729655,13.3030221 L122.729655,13.263273 C122.729655,10.7765513 121.025248,9.03152172 118.49834,9.03152172 L116.112083,9.03152172 Z M113.023883,6.24384245 L118.49834,6.24384245 C122.910054,6.24384245 125.958068,9.27220039 125.958068,13.2230871 L125.958068,13.263273 C125.958068,17.2132861 122.910054,20.28183 118.49834,20.28183 L113.023883,20.28183 L113.023883,6.24384245 Z" id="Fill-11" fill="#00A0DD"></path>
                            <path d="M39.1058286,27.8633391 L39.1058286,27.843683 C39.1058286,25.9007815 40.5704304,24.3099435 42.6683971,24.3099435 C43.9569671,24.3099435 44.7283619,24.739758 45.3630372,25.3643869 L44.406001,26.4673155 C43.8792161,25.9894526 43.3423847,25.6963575 42.6592242,25.6963575 C41.5073736,25.6963575 40.6774472,26.6525201 40.6774472,27.8244636 L40.6774472,27.843683 C40.6774472,29.0147529 41.4877175,29.9910085 42.6592242,29.9910085 C43.4397919,29.9910085 43.9180916,29.678694 44.454923,29.1903478 L45.4119592,30.1574306 C44.7087057,30.9082956 43.9277013,31.3769856 42.6098654,31.3769856 C40.5992594,31.3769856 39.1058286,29.8250232 39.1058286,27.8633391" id="Fill-13" fill="#0F2D52"></path>
                            <path d="M50.5604734,27.7461885 C51.2925559,27.7461885 51.712324,27.3556862 51.712324,26.7799793 L51.712324,26.7603232 C51.712324,26.1160382 51.2632901,25.7840676 50.5312076,25.7840676 L49.0377768,25.7840676 L49.0377768,27.7461885 L50.5604734,27.7461885 Z M47.5342995,24.4273563 L50.6578806,24.4273563 C51.5266826,24.4273563 52.2002334,24.6710926 52.6492673,25.1201264 C53.029723,25.501019 53.2345838,26.0378504 53.2345838,26.6821354 L53.2345838,26.7013547 C53.2345838,27.8047201 52.6392208,28.4979271 51.7704189,28.820288 L53.4398814,31.259835 L51.6826214,31.259835 L50.2188932,29.073634 L49.0377768,29.073634 L49.0377768,31.259835 L47.5342995,31.259835 L47.5342995,24.4273563 Z" id="Fill-15" fill="#0F2D52"></path>
                            <polygon id="Fill-17" fill="#0F2D52" points="55.6366967 24.4274436 60.79054 24.4274436 60.79054 25.7644988 57.1305644 25.7644988 57.1305644 27.1500392 60.3515526 27.1500392 60.3515526 28.487968 57.1305644 28.487968 57.1305644 29.9228671 60.839462 29.9228671 60.839462 31.2603591 55.6366967 31.2603591"></polygon>
                            <path d="M64.7806517,25.7840676 L64.7806517,29.9035604 L65.9421119,29.9035604 C67.1721502,29.9035604 68.0016399,29.073634 68.0016399,27.8632518 L68.0016399,27.8440324 C68.0016399,26.6336502 67.1721502,25.7840676 65.9421119,25.7840676 L64.7806517,25.7840676 Z M63.2776112,24.4277931 L65.9421119,24.4277931 C68.0898742,24.4277931 69.5736953,25.9006941 69.5736953,27.8243763 L69.5736953,27.8440324 C69.5736953,29.7664042 68.0898742,31.2602718 65.9421119,31.2602718 L63.2776112,31.2602718 L63.2776112,24.4277931 Z" id="Fill-19" fill="#0F2D52"></path>
                            <mask id="mask-2" fill="white">
                                <use xlink:href="#path-1"></use>
                            </mask>
                            <g id="Clip-22"></g>
                            <polygon id="Fill-21" fill="#0F2D52" mask="url(#mask-2)" points="71.9585545 31.2602718 73.461595 31.2602718 73.461595 24.4273563 71.9585545 24.4273563"></polygon>
                            <polygon id="Fill-23" fill="#0F2D52" mask="url(#mask-2)" points="77.6017486 25.8132897 75.5225644 25.8132897 75.5225644 24.4277494 81.1839732 24.4277494 81.1839732 25.8132897 79.1047891 25.8132897 79.1047891 31.2597913 77.6017486 31.2597913"></polygon>
                            <path d="M87.112662,28.3318108 L87.112662,24.4272252 L88.6161393,24.4272252 L88.6161393,28.2929353 C88.6161393,29.4059103 89.1726268,29.9811804 90.089914,29.9811804 C91.0072011,29.9811804 91.5636886,29.4251297 91.5636886,28.3418572 L91.5636886,24.4272252 L93.0671659,24.4272252 L93.0671659,28.2828888 C93.0671659,30.3524633 91.9052689,31.3675944 90.0702578,31.3675944 C88.2352467,31.3675944 87.112662,30.3428536 87.112662,28.3318108" id="Fill-24" fill="#0F2D52" mask="url(#mask-2)"></path>
                            <polygon id="Fill-25" fill="#0F2D52" mask="url(#mask-2)" points="95.6885978 24.4274436 97.0750118 24.4274436 100.276781 28.6342971 100.276781 24.4274436 101.760602 24.4274436 101.760602 31.2603591 100.481641 31.2603591 97.1728557 26.9163494 97.1728557 31.2603591 95.6885978 31.2603591"></polygon>
                            <polygon id="Fill-26" fill="#0F2D52" mask="url(#mask-2)" points="104.490798 31.2602718 105.993838 31.2602718 105.993838 24.4273563 104.490798 24.4273563"></polygon>
                            <path d="M114.050327,27.8633391 L114.050327,27.843683 C114.050327,26.6717395 113.191135,25.6963575 111.980753,25.6963575 C110.770371,25.6963575 109.930835,26.6525201 109.930835,27.8244636 L109.930835,27.843683 C109.930835,29.0147529 110.790027,29.9910085 112.000409,29.9910085 C113.210354,29.9910085 114.050327,29.034409 114.050327,27.8633391 M108.359216,27.8633391 L108.359216,27.843683 C108.359216,25.9007815 109.892396,24.3099435 112.000409,24.3099435 C114.108422,24.3099435 115.621946,25.8811253 115.621946,27.8244636 L115.621946,27.843683 C115.621946,29.7861477 114.089203,31.3769856 111.980753,31.3769856 C109.872303,31.3769856 108.359216,29.8058038 108.359216,27.8633391" id="Fill-27" fill="#0F2D52" mask="url(#mask-2)"></path>
                            <polygon id="Fill-28" fill="#0F2D52" mask="url(#mask-2)" points="117.958757 24.4274436 119.344734 24.4274436 122.546066 28.6342971 122.546066 24.4274436 124.030324 24.4274436 124.030324 31.2603591 122.751364 31.2603591 119.442141 26.9163494 119.442141 31.2603591 117.958757 31.2603591"></polygon>
                            <g id="Group-2" mask="url(#mask-2)">
                                <path d="M33.5656764,11.3802573 L33.5661132,11.3802573 C33.5525723,11.3636587 33.5368474,11.3492442 33.5233065,11.3330825 C33.3258713,11.0937142 33.0886871,10.889727 32.8117537,10.7368458 C32.4924505,10.5293642 32.180136,10.367747 31.9984258,10.2362692 C31.9879425,10.2284067 32.3919857,10.5350427 31.8293829,12.4460575 L31.6454887,13.01827 L31.5926355,13.1825081 C31.4829978,13.5096738 31.4371335,13.6616814 31.4231557,13.7123506 L31.4131093,13.7420532 L30.6255527,16.1973251 L30.3569187,17.035114 L29.5697989,19.4886387 L26.1732157,30.1068924 C25.479572,32.189571 24.6081492,32.4769876 24.6081492,32.4769876 C25.721561,32.7456217 26.7139783,32.4957702 26.7576587,32.4839765 L26.7572219,32.4791716 C27.512455,32.2655748 28.1698441,31.702972 28.4830321,30.9210939 C28.4847793,30.9206571 28.4856529,30.9202203 28.4869633,30.9202203 L34.0186415,13.8350923 C34.2881492,12.9614855 34.0850356,12.0437616 33.5656764,11.3802573" id="Fill-29" fill="#00A0DD"></path>
                                <path d="M30.7599572,9.38598767 L30.7608308,9.38467726 C30.7573363,9.37943562 30.7520947,9.37506759 30.7481635,9.37026275 C30.7302545,9.34754897 30.7154032,9.32352478 30.6966207,9.30168462 C30.4983119,9.0684316 30.2589437,8.87361729 29.9850679,8.72685135 C29.6731903,8.52635859 29.3709224,8.36954617 29.1935802,8.24068917 C29.1826601,8.23282671 29.5976233,8.54557794 29.0048811,10.5177453 L28.8480687,11.0030338 L28.8056988,11.1353853 C28.6842674,11.4935641 28.6344718,11.6604229 28.6187469,11.7154602 L27.8255119,14.1755369 L27.5594987,14.9984745 L26.7658269,17.4598616 L22.6205627,30.3446882 C21.9631736,32.2080914 21.1943996,32.4505173 21.1943996,32.4505173 C21.4438143,32.5190955 21.680125,32.5588446 21.8994003,32.5802479 L21.8967795,32.5881104 C21.9037683,32.5863632 21.9094468,32.5837424 21.9159988,32.5815584 C22.7227747,32.6571253 23.2814462,32.4741047 23.2814462,32.4741047 C24.0305641,32.2609447 24.6827115,31.7031467 24.9958996,30.9282575 C25.0151189,30.8841404 28.8860706,18.9934783 28.8860706,18.9934783 L29.6841104,16.5456321 L29.9553653,15.7135216 L30.7547155,13.2634914 L30.9888421,12.5449498 L31.2203479,11.8355811 C31.4902924,10.9615375 31.28019,10.0490552 30.7599572,9.38598767" id="Fill-30" fill="#00A0DD"></path>
                                <path d="M27.9483847,7.30789552 C27.4997877,6.74747676 26.7161624,6.40764372 26.3806974,6.16390743 C26.3793869,6.16303382 26.3863758,6.16827546 26.3972959,6.18268997 C26.4671844,6.27441869 26.7096103,6.74966078 26.1753998,8.49818477 C26.130409,8.64582432 26.0801766,8.80088952 26.023829,8.96731162 C25.8412452,9.50064856 25.799312,9.66226582 25.799312,9.66226582 L24.999525,12.1358834 L24.7387534,12.9439697 L23.93984,15.4149665 L19.0515732,30.5711707 C18.4286916,32.2506798 17.8962282,32.5075202 17.8962282,32.5075202 C18.0394997,32.5350388 18.2133475,32.5603734 18.4029202,32.5782823 L18.3998625,32.5883288 C18.4090354,32.585708 18.4168979,32.5830872 18.4260707,32.5800295 C18.5693422,32.5935704 18.7196026,32.6036169 18.8768518,32.6049273 C20.1370296,32.6237099 21.0879506,32.0248524 21.5007298,30.9280391 C21.5037875,30.9254183 21.5064083,30.9227975 21.5103395,30.9201766 L26.0670725,16.9542617 L26.8707908,14.496369 L27.1376776,13.6791098 L27.9422695,11.2199067 L28.1724649,10.5157797 L28.4175116,9.76622503 C28.6887665,8.8878134 28.4777905,7.96921586 27.9483847,7.30789552" id="Fill-31" fill="#00A0DD"></path>
                                <path d="M26.3972522,6.18251525 L18.7252374,0.616766394 C17.9748091,0.0882342858 17.0361186,-0.000436803395 16.2428837,0.292221471 L16.2402629,0.287853437 C16.1970193,0.304015163 15.2264422,0.693643791 14.4677147,1.58472272 C14.4677147,1.58472272 15.3727713,1.29293805 17.2243809,2.63130365 C17.6808405,2.96152702 17.8158127,3.05980778 17.8158127,3.05980778 L17.8092607,3.0488877 L26.0233485,8.96713689 L26.1753561,8.49801005 C26.7095666,6.74992286 26.4671407,6.27424397 26.3972522,6.18251525" id="Fill-32" fill="#0F2D52"></path>
                                <path d="M25.7990063,9.66244054 L16.0364504,2.56875341 C15.2868958,2.0406581 14.3495157,1.95155021 13.5567175,2.24289807 C13.5567175,2.24289807 12.620211,2.54123479 11.8396434,3.5196744 C11.8396434,3.5196744 12.6315679,3.25322432 14.3202499,4.42647824 L25.0000929,12.1356214 L25.7990063,9.66244054 Z" id="Fill-33" fill="#0F2D52"></path>
                                <path d="M24.7385787,12.9438824 L13.2480286,4.57647653 C12.2245982,3.85531412 11.0369298,3.92127144 9.97287671,4.71887444 C9.66361991,4.94732261 9.39979066,5.19586374 9.21677004,5.39198847 C9.21677004,5.39198847 9.81562749,5.28322442 11.3527386,6.30752838 L23.9396653,15.415316 L24.7385787,12.9438824 Z" id="Fill-34" fill="#0F2D52"></path>
                                <path d="M18.1493558,30.5925304 C17.5260373,32.2720395 16.9927004,32.5306271 16.9927004,32.5306271 L6.64744879,32.5328111 L0.000174721358,12.0755609 L8.4636773,5.94983008 C8.4636773,5.94983008 9.09485821,5.74846372 10.3292646,6.64041625 C10.6341534,6.86056516 10.7250085,6.92739608 10.7250085,6.92739608 L16.6445681,11.262233 L10.863912,15.4411311 L13.3589329,23.1210083 L20.5587633,23.1210083 L18.1462982,30.6143706" id="Fill-35" fill="#0F2D52"></path>
                            </g>
                            <path d="M127.382746,8.15271697 L127.528202,8.15271697 C127.698118,8.15271697 127.836148,8.09593252 127.836148,7.95833945 C127.836148,7.83690811 127.74704,7.75609948 127.552663,7.75609948 C127.471854,7.75609948 127.41507,7.76439875 127.382746,7.77226121 L127.382746,8.15271697 Z M127.374884,8.90489241 L127.067374,8.90489241 L127.067374,7.5783205 C127.188369,7.55385951 127.358722,7.53769778 127.577124,7.53769778 C127.827849,7.53769778 127.940981,7.5783205 128.037951,7.63466814 C128.110898,7.69145258 128.167245,7.7967222 128.167245,7.926016 C128.167245,8.07190834 128.05455,8.18504042 127.892496,8.23308879 L127.892496,8.24968732 C128.02179,8.2981725 128.094736,8.39514285 128.135359,8.57335863 C128.175981,8.77603541 128.200006,8.85640723 128.232329,8.90489241 L127.900795,8.90489241 C127.859736,8.85640723 127.836148,8.73497589 127.795526,8.5812211 C127.771065,8.43576556 127.690256,8.37111866 127.520339,8.37111866 L127.374884,8.37111866 L127.374884,8.90489241 Z M126.557188,8.20950141 C126.557188,8.79962279 126.994428,9.26918644 127.593286,9.26918644 C128.175981,9.26918644 128.604922,8.79962279 128.604922,8.21736387 C128.604922,7.62680568 128.175981,7.14937957 127.584986,7.14937957 C126.994428,7.14937957 126.557188,7.62680568 126.557188,8.20950141 L126.557188,8.20950141 Z M128.944319,8.20950141 C128.944319,8.96167685 128.35376,9.55267185 127.584986,9.55267185 C126.824512,9.55267185 126.217355,8.96167685 126.217355,8.20950141 C126.217355,7.47305088 126.824512,6.88249269 127.584986,6.88249269 C128.35376,6.88249269 128.944319,7.47305088 128.944319,8.20950141 L128.944319,8.20950141 Z" id="Fill-36" fill="#00A0DD" mask="url(#mask-2)"></path>
                        </g>
                    </g>
                </g>
            </g>
        </g>
    </g>
</svg>